<svg version="1.1" id="Layer_1" xmlns="http://www.w3.org/2000/svg" xmlns:xlink="http://www.w3.org/1999/xlink" x="0px" y="0px"
	 width="100%" viewBox="0 0 330 330" enable-background="new 0 0 330 330" xml:space="preserve">
<path fill="#E9F6FF" opacity="1.000000" stroke="none" 
	d="
M178.000000,331.000000 
	C119.037857,331.000000 60.075706,331.000000 1.056780,331.000000 
	C1.056780,221.108459 1.056780,111.216866 1.056780,1.000000 
	C59.020489,1.000000 117.041588,1.000000 175.531342,1.468657 
	C175.999924,22.800741 176.004303,43.664173 175.993912,64.527596 
	C175.992691,66.987839 176.453552,69.773033 172.526566,69.762177 
	C169.130905,66.131584 166.019287,62.658390 162.679886,59.420101 
	C160.005005,56.826206 156.939758,56.699890 154.281693,59.447254 
	C151.752136,62.061764 152.198334,64.939400 154.516205,67.481346 
	C156.647415,69.818588 158.924561,72.027832 161.207016,74.221039 
	C166.573303,79.377502 168.369156,79.169174 173.193054,73.035988 
	C174.397644,74.500381 175.742691,75.861046 175.889023,77.340302 
	C176.243256,80.921455 176.038773,84.557884 175.943970,88.484848 
	C169.655228,96.352341 165.731247,104.885559 163.967758,115.076622 
	C169.090240,113.895607 173.529419,112.872131 177.977783,112.315994 
	C177.989304,116.147919 177.991592,119.512512 177.726868,122.987579 
	C176.966446,123.371681 176.473022,123.645325 175.579361,123.914673 
	C172.630249,124.820312 169.974945,125.511749 167.556732,126.689850 
	C163.629471,128.603104 159.857498,130.835098 155.915573,132.604126 
	C151.739258,124.215263 146.686966,116.947937 138.972534,111.410721 
	C132.526443,107.777863 126.262657,104.421059 119.682129,100.853821 
	C113.252327,99.686470 107.139275,98.729546 100.622177,97.620590 
	C94.478973,98.333061 88.739815,99.197563 82.622131,100.045715 
	C76.360916,102.949448 70.478233,105.869530 64.262428,108.838432 
	C59.281452,113.589622 54.633595,118.291992 49.696621,123.169479 
	C46.493046,129.037430 42.777191,134.476898 40.875954,140.490097 
	C38.714409,147.326569 38.174477,154.675766 36.592083,161.891983 
	C31.495504,166.306427 26.736492,170.630966 21.683548,175.118469 
	C10.654372,188.089218 5.783016,203.033829 6.555148,219.528931 
	C7.261293,234.614380 12.006522,248.407089 22.951321,259.839233 
	C26.914490,263.483917 30.772734,266.828674 34.836975,270.456543 
	C40.019493,273.195648 44.996021,275.651642 50.238846,278.359100 
	C54.942799,279.616608 59.380447,280.622620 64.219551,281.745972 
	C69.413177,281.835876 74.205338,281.808441 79.460510,281.855286 
	C85.949455,281.892303 91.975380,281.855011 98.464478,281.891785 
	C105.950882,282.255219 112.974113,282.544586 120.461037,282.901306 
	C126.636620,282.700104 132.348511,282.431549 138.522400,282.120605 
	C144.655975,282.014069 150.327576,281.949982 156.462570,281.959595 
	C163.283829,281.996490 169.641693,281.959656 176.329407,282.005188 
	C177.103729,282.170471 177.548157,282.253418 177.993958,282.783905 
	C177.996872,299.154327 177.998444,315.077148 178.000000,331.000000 
z"/>
<path fill="#C0E4FF" opacity="1.000000" stroke="none" 
	d="
M307.000000,1.000000 
	C314.990540,1.000000 322.981079,1.000000 330.965637,1.000002 
	C330.959656,111.000008 330.959656,221.000015 330.959656,331.000000 
	C325.259338,331.000000 319.599396,331.000000 313.469727,330.531342 
	C312.997925,263.819244 312.995880,197.575821 313.442810,131.247559 
	C316.038208,131.136566 318.184540,131.094635 320.331024,131.087692 
	C324.093536,131.075516 326.528107,129.111603 326.529236,125.481117 
	C326.530365,121.857773 324.126068,119.902107 320.343903,119.867729 
	C315.892029,119.827271 311.441040,119.693970 306.991760,119.157295 
	C306.995941,79.475777 306.997986,40.237888 307.000000,1.000000 
z"/>
<path fill="#C8E7FF" opacity="1.000000" stroke="none" 
	d="
M306.531342,1.000000 
	C306.997986,40.237888 306.995941,79.475777 306.536957,119.247589 
	C302.786591,119.828262 299.470367,119.648247 296.205200,119.976280 
	C291.603577,120.438599 289.322693,125.091476 292.275970,128.590973 
	C293.657379,130.227875 296.703308,130.460037 298.996033,131.776917 
	C298.998138,198.483307 298.999084,264.741638 299.000000,331.000000 
	C294.310760,331.000000 289.621490,331.000000 284.466125,330.531342 
	C284.000000,246.404968 284.008972,162.747253 283.955261,79.089569 
	C283.953705,76.651886 283.289459,74.214630 283.079346,71.486298 
	C284.688171,69.611717 286.734772,68.251366 287.451385,66.381371 
	C288.165222,64.518494 288.329376,61.567272 287.290802,60.154667 
	C286.228119,58.709232 283.429413,58.070068 281.359711,58.000706 
	C279.985291,57.954647 278.556580,59.529884 277.109497,59.888634 
	C277.044556,39.931919 277.022278,20.465960 277.000000,1.000000 
	C286.687561,1.000000 296.375122,1.000000 306.531342,1.000000 
z"/>
<path fill="#CCE8FF" opacity="1.000000" stroke="none" 
	d="
M282.934204,71.777176 
	C283.289459,74.214630 283.953705,76.651886 283.955261,79.089569 
	C284.008972,162.747253 284.000000,246.404968 284.000000,330.531342 
	C280.307098,331.000000 276.614166,331.000000 272.460632,330.531342 
	C271.999969,307.091370 272.048767,284.119781 271.902771,261.149384 
	C271.891693,259.403351 270.499268,257.666107 269.829315,255.562866 
	C271.939087,247.768173 274.948914,240.443695 275.784454,232.879059 
	C277.309967,219.067459 271.739471,207.056976 264.109375,196.010178 
	C265.009460,195.128616 265.898193,194.356964 265.908417,193.573853 
	C266.016144,185.324768 266.086578,177.071396 265.891571,168.825745 
	C265.857880,167.402344 264.533356,166.009476 263.915070,164.292419 
	C281.944305,141.319611 283.432007,117.895287 268.733795,92.444267 
	C269.284424,90.117393 269.724670,88.238396 269.981079,86.334633 
	C270.410339,83.147499 270.722321,79.944572 271.496521,76.824333 
	C277.215790,78.703415 279.591827,74.200523 282.934204,71.777176 
z"/>
<path fill="#C4E6FF" opacity="1.000000" stroke="none" 
	d="
M299.464661,331.000000 
	C298.999084,264.741638 298.998138,198.483307 299.454407,131.691681 
	C304.272339,131.216385 308.633087,131.274384 312.993805,131.332397 
	C312.995880,197.575821 312.997925,263.819244 313.000000,330.531342 
	C308.643097,331.000000 304.286194,331.000000 299.464661,331.000000 
z"/>
<path fill="#D5ECFF" opacity="1.000000" stroke="none" 
	d="
M226.000000,1.000000 
	C235.354233,1.000000 244.708450,1.000000 254.531342,1.468657 
	C255.000000,24.769472 255.030197,47.601727 254.956238,70.433640 
	C254.948288,72.886192 254.334305,75.336784 253.683990,77.689987 
	C249.909790,75.798454 246.453049,74.005196 242.678650,72.005524 
	C237.574112,70.599480 232.787216,69.399857 227.664505,68.107574 
	C226.882263,67.892235 226.435867,67.769547 225.991119,67.209732 
	C225.634659,62.418648 225.276520,58.064678 225.077911,53.343327 
	C225.528091,52.207127 226.063919,51.440796 226.071762,50.669109 
	C226.159088,42.065895 226.289658,33.458809 226.080200,24.860769 
	C226.041473,23.270411 224.540924,21.715662 224.046875,19.912182 
	C224.918396,18.021038 225.843567,16.380550 225.923630,14.699815 
	C226.140701,10.142336 225.999268,5.567783 226.000000,1.000000 
z"/>
<path fill="#CFEAFF" opacity="1.000000" stroke="none" 
	d="
M254.001434,77.788277 
	C254.334305,75.336784 254.948288,72.886192 254.956238,70.433640 
	C255.030197,47.601727 255.000000,24.769472 255.000000,1.468657 
	C262.020966,1.000000 269.041901,1.000000 276.531433,1.000000 
	C277.022278,20.465960 277.044556,39.931919 276.947784,60.160748 
	C275.099762,62.682812 273.467316,64.551529 271.621704,66.178413 
	C267.771820,69.571991 267.511444,73.033707 271.083618,76.748291 
	C270.722321,79.944572 270.410339,83.147499 269.981079,86.334633 
	C269.724670,88.238396 269.284424,90.117393 268.517883,92.145531 
	C265.086334,89.143845 262.063782,86.004158 258.935303,82.557480 
	C257.220032,80.763084 255.610733,79.275681 254.001434,77.788277 
z"/>
<path fill="#DEF1FF" opacity="1.000000" stroke="none" 
	d="
M225.531342,1.000000 
	C225.999268,5.567783 226.140701,10.142336 225.923630,14.699815 
	C225.843567,16.380550 224.918396,18.021038 223.642685,19.860729 
	C216.699875,19.691906 215.023193,21.124115 214.960480,27.107422 
	C214.889313,33.898705 215.302414,40.716011 214.836655,47.475960 
	C214.420776,53.511925 219.552155,57.360676 224.918365,53.710709 
	C225.276520,58.064678 225.634659,62.418648 225.529892,67.265869 
	C220.713623,67.955971 216.360260,68.152824 211.625961,68.321922 
	C206.160034,69.813339 201.075043,71.332520 195.992401,72.392342 
	C195.996506,48.288654 195.998245,24.644327 196.000000,1.000000 
	C205.687561,1.000000 215.375122,1.000000 225.531342,1.000000 
z"/>
<path fill="#D4ECFF" opacity="1.000000" stroke="none" 
	d="
M258.000000,331.000000 
	C247.979111,331.000000 237.958206,331.000000 227.468903,330.531342 
	C226.977341,314.163330 226.954208,298.264008 227.355591,282.261963 
	C232.520142,281.066498 237.260193,279.973663 242.358841,278.870117 
	C247.356415,276.321472 251.995377,273.783539 256.818237,271.678619 
	C257.334717,274.202911 257.946747,276.292938 257.955963,278.385620 
	C258.033295,295.923462 257.999969,313.461823 258.000000,331.000000 
z"/>
<path fill="#E5F4FF" opacity="1.000000" stroke="none" 
	d="
M195.531586,1.000000 
	C195.998245,24.644327 195.996506,48.288654 195.739761,72.583435 
	C194.283325,74.019615 193.081879,74.805336 191.529922,75.677032 
	C186.139450,79.899353 181.099457,84.035698 176.059479,88.172043 
	C176.038773,84.557884 176.243256,80.921455 175.889023,77.340302 
	C175.742691,75.861046 174.397644,74.500381 173.146820,72.667267 
	C172.701340,71.506172 172.706802,70.763588 172.712280,70.021004 
	C176.453552,69.773033 175.992691,66.987839 175.993912,64.527596 
	C176.004303,43.664173 175.999924,22.800741 176.000000,1.468657 
	C182.354401,1.000000 188.708786,1.000000 195.531586,1.000000 
z"/>
<path fill="#DDF0FF" opacity="1.000000" stroke="none" 
	d="
M226.931091,282.364655 
	C226.954208,298.264008 226.977341,314.163330 227.000244,330.531342 
	C218.312439,331.000000 209.624863,331.000000 200.468658,330.531342 
	C199.997437,314.179169 199.994858,298.295685 200.441971,282.316223 
	C204.261307,282.146790 207.630951,282.073303 211.462280,282.077148 
	C216.957214,282.085205 221.990494,282.015930 226.983673,282.047394 
	C226.943604,282.148132 226.931076,282.364655 226.931091,282.364655 
z"/>
<path fill="#E4F3FF" opacity="1.000000" stroke="none" 
	d="
M199.992294,282.412170 
	C199.994858,298.295685 199.997437,314.179169 200.000000,330.531342 
	C192.979050,331.000000 185.958099,331.000000 178.468567,331.000000 
	C177.998444,315.077148 177.996872,299.154327 178.454132,282.697021 
	C183.941971,282.095306 188.970947,282.028015 194.423813,282.038391 
	C196.562561,282.214752 198.277420,282.313477 199.992294,282.412170 
z"/>
<path fill="#CEEAFF" opacity="1.000000" stroke="none" 
	d="
M258.464661,331.000000 
	C257.999969,313.461823 258.033295,295.923462 257.955963,278.385620 
	C257.946747,276.292938 257.334717,274.202911 256.947388,271.471130 
	C257.292694,270.310852 257.692688,269.791046 258.413605,269.150574 
	C262.406036,264.661530 266.077484,260.293152 269.748932,255.924774 
	C270.499268,257.666107 271.891693,259.403351 271.902771,261.149384 
	C272.048767,284.119781 271.999969,307.091370 272.000000,330.531342 
	C267.643097,331.000000 263.286194,331.000000 258.464661,331.000000 
z"/>
<path fill="#1C9EFF" opacity="1.000000" stroke="none" 
	d="
M119.997353,282.833923 
	C112.974113,282.544586 105.950882,282.255219 98.530785,281.490814 
	C98.422615,278.899780 98.961189,276.784058 98.963280,274.667816 
	C99.009575,227.641312 98.996651,180.614761 99.315094,133.463287 
	C101.631371,131.711548 104.598755,130.457352 105.398911,128.371689 
	C106.638000,125.141968 103.997978,123.015602 100.999641,121.358902 
	C101.008537,113.192062 101.017380,105.482346 101.026230,97.772621 
	C107.139275,98.729546 113.252327,99.686470 119.682388,101.317703 
	C119.998726,162.272644 119.998039,222.553284 119.997353,282.833923 
z"/>
<path fill="#2198FF" opacity="1.000000" stroke="none" 
	d="
M120.461037,282.901306 
	C119.998039,222.553284 119.998726,162.272644 119.999146,101.528122 
	C126.262657,104.421059 132.526443,107.777863 138.793961,111.817490 
	C138.531876,114.118813 138.034363,115.737244 138.033768,117.355850 
	C138.013474,172.291565 138.040344,227.227295 138.060410,282.163025 
	C132.348511,282.431549 126.636620,282.700104 120.461037,282.901306 
z"/>
<path fill="#2A8CFF" opacity="1.000000" stroke="none" 
	d="
M175.999542,281.922821 
	C169.641693,281.959656 163.283829,281.996490 156.462875,281.499023 
	C156.006500,231.620667 156.013245,182.276596 156.019974,132.932556 
	C159.857498,130.835098 163.629471,128.603104 167.556732,126.689850 
	C169.974945,125.511749 172.630249,124.820312 175.585495,124.389221 
	C175.994431,177.219650 175.996994,229.571243 175.999542,281.922821 
z"/>
<path fill="#2593FF" opacity="1.000000" stroke="none" 
	d="
M155.915573,132.604126 
	C156.013245,182.276596 156.006500,231.620667 155.999466,281.425293 
	C150.327576,281.949982 144.655975,282.014069 138.522400,282.120605 
	C138.040344,227.227295 138.013474,172.291565 138.033768,117.355850 
	C138.034363,115.737244 138.531876,114.118813 138.976288,112.093544 
	C146.686966,116.947937 151.739258,124.215263 155.915573,132.604126 
z"/>
<path fill="#16A6FF" opacity="1.000000" stroke="none" 
	d="
M98.994980,133.588211 
	C98.996651,180.614761 99.009575,227.641312 98.963280,274.667816 
	C98.961189,276.784058 98.422615,278.899780 98.067619,281.416748 
	C91.975380,281.855011 85.949455,281.892303 79.460983,281.401611 
	C78.998962,239.484436 78.999649,198.095169 78.999237,156.705917 
	C78.999229,155.376221 79.401161,153.841293 78.870163,152.772400 
	C78.296257,151.617096 76.846016,150.897125 75.831329,149.631012 
	C80.428322,139.390747 88.051941,134.044296 98.994980,133.588211 
z"/>
<path fill="#3086FF" opacity="1.000000" stroke="none" 
	d="
M176.329407,282.005188 
	C175.996994,229.571243 175.994431,177.219650 175.985748,124.393524 
	C176.473022,123.645325 176.966446,123.371681 178.149902,123.016884 
	C183.924316,122.869415 189.008652,122.803093 194.065186,123.224815 
	C194.024902,176.462158 194.012421,229.211456 193.999939,281.960754 
	C188.970947,282.028015 183.941971,282.095306 178.452789,282.249451 
	C177.548157,282.253418 177.103729,282.170471 176.329407,282.005188 
z"/>
<path fill="#0BB4FF" opacity="1.000000" stroke="none" 
	d="
M36.929649,161.802078 
	C38.174477,154.675766 38.714409,147.326569 40.875954,140.490097 
	C42.777191,134.476898 46.493046,129.037430 50.090477,123.268280 
	C51.182446,124.858727 51.935646,126.523270 51.946438,128.192612 
	C52.040100,142.677643 51.948605,157.163910 52.045647,171.648895 
	C52.064308,174.435425 52.667137,177.218048 52.792297,180.270721 
	C48.291431,184.594345 48.244995,186.113586 51.936451,191.160339 
	C51.403297,193.228882 51.028934,195.019302 51.026077,196.810318 
	C50.987278,221.125168 51.033031,245.440201 50.954807,269.754852 
	C50.945850,272.540131 50.315029,275.323395 49.972546,278.107605 
	C44.996021,275.651642 40.019493,273.195648 35.257515,270.340912 
	C35.981220,268.500275 36.932308,267.059174 36.934803,265.616425 
	C36.994667,231.011749 36.952950,196.406906 36.929649,161.802078 
z"/>
<path fill="#11ABFF" opacity="1.000000" stroke="none" 
	d="
M75.778015,149.987274 
	C76.846016,150.897125 78.296257,151.617096 78.870163,152.772400 
	C79.401161,153.841293 78.999229,155.376221 78.999237,156.705917 
	C78.999649,198.095169 78.998962,239.484436 78.997971,281.327332 
	C74.205338,281.808441 69.413177,281.835876 64.268646,281.230621 
	C63.612350,249.794388 63.308411,218.990860 63.277023,187.957550 
	C76.410767,180.619614 75.611359,182.569870 74.092674,166.483795 
	C73.968376,165.167191 73.616936,163.816803 73.787582,162.537689 
	C74.347565,158.340408 75.099709,154.168762 75.778015,149.987274 
z"/>
<path fill="#07B9FF" opacity="1.000000" stroke="none" 
	d="
M36.592083,161.891983 
	C36.952950,196.406906 36.994667,231.011749 36.934803,265.616425 
	C36.932308,267.059174 35.981220,268.500275 35.051517,270.057800 
	C30.772734,266.828674 26.914490,263.483917 22.992310,259.328613 
	C22.952080,232.263428 22.993732,206.008743 22.955568,179.754166 
	C22.953243,178.154144 22.318148,176.555038 21.977478,174.955505 
	C26.736492,170.630966 31.495504,166.306427 36.592083,161.891983 
z"/>
<path fill="#0EB0FF" opacity="1.000000" stroke="none" 
	d="
M63.004467,188.187317 
	C63.308411,218.990860 63.612350,249.794388 63.867195,281.113281 
	C59.380447,280.622620 54.942799,279.616608 50.238846,278.359100 
	C50.315029,275.323395 50.945850,272.540131 50.954807,269.754852 
	C51.033031,245.440201 50.987278,221.125168 51.026077,196.810318 
	C51.028934,195.019302 51.403297,193.228882 52.339634,191.194977 
	C56.384373,190.030289 59.694420,189.108810 63.004467,188.187317 
z"/>
<path fill="#06BEFF" opacity="1.000000" stroke="none" 
	d="
M21.683544,175.118469 
	C22.318148,176.555038 22.953243,178.154144 22.955568,179.754166 
	C22.993732,206.008743 22.952080,232.263428 22.887384,259.028687 
	C12.006522,248.407089 7.261293,234.614380 6.555148,219.528931 
	C5.783016,203.033829 10.654372,188.089218 21.683544,175.118469 
z"/>
<path fill="#11B0FF" opacity="1.000000" stroke="none" 
	d="
M53.000473,180.002472 
	C52.667137,177.218048 52.064308,174.435425 52.045647,171.648895 
	C51.948605,157.163910 52.040100,142.677643 51.946438,128.192612 
	C51.935646,126.523270 51.182446,124.858727 50.379601,123.093163 
	C54.633595,118.291992 59.281452,113.589622 64.614128,109.068634 
	C65.865974,111.262291 66.847435,113.259346 66.921928,115.289688 
	C67.141045,121.262001 66.896355,127.250504 67.067741,133.225937 
	C67.115257,134.882828 67.979736,136.516266 68.345848,138.503571 
	C63.185802,146.871033 61.357166,155.587570 62.246357,165.005676 
	C63.207581,175.186768 63.102158,175.198380 53.950974,179.737579 
	C53.661552,179.881134 53.318516,179.916611 53.000473,180.002472 
z"/>
<path fill="#3289FF" opacity="1.000000" stroke="none" 
	d="
M175.943954,88.484848 
	C181.099457,84.035698 186.139450,79.899353 191.563995,76.178818 
	C191.964386,87.949593 191.980209,99.304565 191.539062,110.729385 
	C186.710938,111.149040 182.339752,111.498848 177.968582,111.848663 
	C173.529419,112.872131 169.090240,113.895607 163.967758,115.076622 
	C165.731247,104.885559 169.655228,96.352341 175.943954,88.484848 
z"/>
<path fill="#15ABFF" opacity="1.000000" stroke="none" 
	d="
M68.469391,138.160461 
	C67.979736,136.516266 67.115257,134.882828 67.067741,133.225937 
	C66.896355,127.250504 67.141045,121.262001 66.921928,115.289688 
	C66.847435,113.259346 65.865974,111.262291 64.947250,109.019821 
	C70.478233,105.869530 76.360916,102.949448 82.621918,100.509964 
	C83.000145,105.470116 82.861633,109.955330 83.044029,114.427452 
	C83.188553,117.971069 83.726547,121.498642 83.860535,125.288422 
	C78.577293,129.749161 73.523346,133.954803 68.469391,138.160461 
z"/>
<path fill="#18A5FF" opacity="1.000000" stroke="none" 
	d="
M84.089828,125.033340 
	C83.726547,121.498642 83.188553,117.971069 83.044029,114.427452 
	C82.861633,109.955330 83.000145,105.470116 83.000443,100.526306 
	C88.739815,99.197563 94.478973,98.333061 100.622177,97.620590 
	C101.017380,105.482346 101.008537,113.192062 100.553772,121.406464 
	C94.768517,122.951874 89.429176,123.992607 84.089828,125.033340 
z"/>
<path fill="#E2F2FF" opacity="1.000000" stroke="none" 
	d="
M177.977783,112.315987 
	C182.339752,111.498848 186.710938,111.149040 191.948563,110.828033 
	C196.872818,111.646309 200.930634,112.435799 204.991272,113.667694 
	C204.995148,117.688866 204.996201,121.267624 204.615906,124.827049 
	C200.854019,124.117401 197.473511,123.427094 194.093002,122.736778 
	C189.008652,122.803093 183.924316,122.869415 178.416931,122.906418 
	C177.991592,119.512512 177.989304,116.147919 177.977783,112.315987 
z"/>
<path fill="#3291FF" opacity="1.000000" stroke="none" 
	d="
M172.526581,69.762177 
	C172.706802,70.763588 172.701340,71.506172 172.742096,72.617477 
	C168.369156,79.169174 166.573303,79.377502 161.207016,74.221039 
	C158.924561,72.027832 156.647415,69.818588 154.516205,67.481346 
	C152.198334,64.939400 151.752136,62.061764 154.281693,59.447254 
	C156.939758,56.699890 160.005005,56.826206 162.679886,59.420101 
	C166.019287,62.658390 169.130905,66.131584 172.526581,69.762177 
z"/>
<path fill="#5260FF" opacity="1.000000" stroke="none" 
	d="
M313.442810,131.247559 
	C308.633087,131.274384 304.272339,131.216385 299.453247,131.243622 
	C296.703308,130.460037 293.657379,130.227875 292.275970,128.590973 
	C289.322693,125.091476 291.603577,120.438599 296.205200,119.976280 
	C299.470367,119.648247 302.786591,119.828262 306.534851,119.691223 
	C311.441040,119.693970 315.892029,119.827271 320.343903,119.867729 
	C324.126068,119.902107 326.530365,121.857773 326.529236,125.481117 
	C326.528107,129.111603 324.093536,131.075516 320.331024,131.087692 
	C318.184540,131.094635 316.038208,131.136566 313.442810,131.247559 
z"/>
<path fill="#4D6DFF" opacity="1.000000" stroke="none" 
	d="
M271.496521,76.824333 
	C267.511444,73.033707 267.771820,69.571991 271.621704,66.178413 
	C273.467316,64.551529 275.099762,62.682812 276.990479,60.651505 
	C278.556580,59.529884 279.985291,57.954647 281.359711,58.000706 
	C283.429413,58.070068 286.228119,58.709232 287.290802,60.154667 
	C288.329376,61.567272 288.165222,64.518494 287.451385,66.381371 
	C286.734772,68.251366 284.688171,69.611717 283.079346,71.486298 
	C279.591827,74.200523 277.215790,78.703415 271.496521,76.824333 
z"/>
<path fill="#476DFF" opacity="1.000000" stroke="none" 
	d="
M259.041229,82.864471 
	C262.063782,86.004158 265.086334,89.143845 268.324829,92.582275 
	C283.432007,117.895287 281.944305,141.319611 263.618835,164.449692 
	C261.844238,166.059143 260.475800,167.201218 259.075256,167.847107 
	C259.042511,139.188751 259.041870,111.026611 259.041229,82.864471 
z"/>
<path fill="#476EFF" opacity="1.000000" stroke="none" 
	d="
M269.829315,255.562866 
	C266.077484,260.293152 262.406036,264.661530 258.341431,268.713593 
	C257.632935,266.777466 257.044281,265.157837 257.043182,263.537811 
	C257.026581,239.219833 257.087372,214.901810 257.445038,190.715683 
	C259.736786,192.603317 261.713470,194.359055 263.690155,196.114777 
	C271.739471,207.056976 277.309967,219.067459 275.784454,232.879059 
	C274.948914,240.443695 271.939087,247.768173 269.829315,255.562866 
z"/>
<path fill="#D1E9FF" opacity="1.000000" stroke="none" 
	d="
M264.109375,196.010178 
	C261.713470,194.359055 259.736786,192.603317 257.264374,190.453064 
	C251.856461,187.341873 246.944290,184.625168 241.763702,181.654099 
	C239.700897,180.748322 237.906494,180.096924 235.922791,179.376801 
	C237.341599,168.652359 236.011475,158.635712 232.385666,148.985779 
	C233.531403,147.283234 234.369431,145.638382 234.975266,143.912048 
	C235.776978,141.627487 236.397003,139.279175 237.397949,137.090164 
	C239.080627,138.996597 240.460480,140.771133 241.824554,142.897247 
	C243.908752,151.728500 246.178329,160.171310 248.033951,168.704132 
	C248.903946,172.704681 251.700012,174.355606 255.088684,172.021530 
	C256.569977,171.001221 257.776215,169.581589 259.107330,168.343292 
	C260.475800,167.201218 261.844238,166.059143 263.508911,164.759766 
	C264.533356,166.009476 265.857880,167.402344 265.891571,168.825745 
	C266.086578,177.071396 266.016144,185.324768 265.908417,193.573853 
	C265.898193,194.356964 265.009460,195.128616 264.109375,196.010178 
z"/>
<path fill="#4272FF" opacity="1.000000" stroke="none" 
	d="
M259.075256,167.847092 
	C257.776215,169.581589 256.569977,171.001221 255.088684,172.021530 
	C251.700012,174.355606 248.903946,172.704681 248.033951,168.704132 
	C246.178329,160.171310 243.908752,151.728500 241.900330,142.435120 
	C242.327911,139.185532 242.946579,136.750687 242.955582,134.313583 
	C243.032059,113.613274 242.997559,92.912544 242.996323,72.211945 
	C246.453049,74.005196 249.909790,75.798454 253.683975,77.689987 
	C255.610733,79.275681 257.220032,80.763084 258.935303,82.557480 
	C259.041870,111.026611 259.042511,139.188751 259.075256,167.847092 
z"/>
<path fill="#3E76FF" opacity="1.000000" stroke="none" 
	d="
M242.678650,72.005524 
	C242.997559,92.912544 243.032059,113.613274 242.955582,134.313583 
	C242.946579,136.750687 242.327911,139.185532 241.916092,142.083542 
	C240.460480,140.771133 239.080627,138.996597 237.326233,136.749908 
	C233.936279,132.614609 230.920853,128.951477 227.932373,124.802299 
	C227.973007,105.610916 227.986679,86.905571 228.000336,68.200233 
	C232.787216,69.399857 237.574112,70.599480 242.678650,72.005524 
z"/>
<path fill="#3A7BFF" opacity="1.000000" stroke="none" 
	d="
M227.664520,68.107574 
	C227.986679,86.905571 227.973007,105.610916 227.602631,124.681564 
	C221.831696,121.661697 216.417435,118.276527 211.065063,114.484116 
	C211.417969,111.960754 211.948059,109.846085 211.960968,107.728264 
	C212.040894,94.602463 212.004608,81.475960 212.006897,68.349686 
	C216.360260,68.152824 220.713623,67.955971 225.528229,67.702988 
	C226.435867,67.769547 226.882263,67.892235 227.664520,68.107574 
z"/>
<path fill="#3E7EFF" opacity="1.000000" stroke="none" 
	d="
M225.077927,53.343327 
	C219.552155,57.360676 214.420776,53.511925 214.836655,47.475960 
	C215.302414,40.716011 214.889313,33.898705 214.960480,27.107422 
	C215.023193,21.124115 216.699875,19.691906 223.310883,20.093027 
	C224.540924,21.715662 226.041473,23.270411 226.080200,24.860769 
	C226.289658,33.458809 226.159088,42.065895 226.071762,50.669109 
	C226.063919,51.440796 225.528091,52.207127 225.077927,53.343327 
z"/>
<path fill="#3681FF" opacity="1.000000" stroke="none" 
	d="
M211.625961,68.321922 
	C212.004608,81.475960 212.040894,94.602463 211.960968,107.728264 
	C211.948059,109.846085 211.417969,111.960754 210.715149,114.467262 
	C208.531723,114.313522 206.760071,113.769402 204.988434,113.225281 
	C200.930634,112.435799 196.872818,111.646309 192.405518,110.758179 
	C191.980209,99.304565 191.964386,87.949593 191.914490,76.092842 
	C193.081879,74.805336 194.283325,74.019615 195.737411,73.042801 
	C201.075043,71.332520 206.160034,69.813339 211.625961,68.321922 
z"/>
<path fill="#3E76FF" opacity="1.000000" stroke="none" 
	d="
M231.974609,149.007202 
	C236.011475,158.635712 237.341599,168.652359 235.922791,179.376801 
	C237.906494,180.096924 239.700897,180.748322 241.753693,182.129669 
	C242.008163,214.866684 242.004196,246.873749 242.000229,278.880829 
	C237.260193,279.973663 232.520142,281.066498 227.355591,282.261963 
	C226.931076,282.364655 226.943604,282.148132 226.976135,281.582764 
	C227.005783,238.069229 226.967148,195.120895 227.106369,152.173172 
	C227.113281,150.041733 228.667374,147.915314 229.747787,145.941589 
	C230.654572,147.066803 231.314590,148.037003 231.974609,149.007202 
z"/>
<path fill="#4172FF" opacity="1.000000" stroke="none" 
	d="
M242.358841,278.870117 
	C242.004196,246.873749 242.008163,214.866684 242.022110,182.384033 
	C246.944290,184.625168 251.856461,187.341873 256.949310,190.321167 
	C257.087372,214.901810 257.026581,239.219833 257.043182,263.537811 
	C257.044281,265.157837 257.632935,266.777466 258.020508,268.834259 
	C257.692688,269.791046 257.292694,270.310852 256.763519,271.038147 
	C251.995377,273.783539 247.356415,276.321472 242.358841,278.870117 
z"/>
<path fill="#3480FF" opacity="1.000000" stroke="none" 
	d="
M194.065186,123.224815 
	C197.473511,123.427094 200.854019,124.117401 204.909180,125.015152 
	C207.727646,126.462936 209.871445,127.703278 211.957291,129.361923 
	C211.599548,132.233826 211.040848,134.687134 211.038254,137.141052 
	C210.987030,185.427246 211.000412,233.713531 211.000610,281.999786 
	C207.630951,282.073303 204.261307,282.146790 200.441971,282.316223 
	C198.277420,282.313477 196.562561,282.214752 194.423813,282.038391 
	C194.012421,229.211456 194.024902,176.462158 194.065186,123.224815 
z"/>
<path fill="#397BFF" opacity="1.000000" stroke="none" 
	d="
M211.462280,282.077148 
	C211.000412,233.713531 210.987030,185.427246 211.038254,137.141052 
	C211.040848,134.687134 211.599548,132.233826 212.303650,129.420456 
	C219.747299,133.188553 225.867035,138.239700 229.501022,145.786560 
	C228.667374,147.915314 227.113281,150.041733 227.106369,152.173172 
	C226.967148,195.120895 227.005783,238.069229 227.016205,281.482056 
	C221.990494,282.015930 216.957214,282.085205 211.462280,282.077148 
z"/>
<path fill="#E1F3FF" opacity="1.000000" stroke="none" 
	d="
M83.860535,125.288429 
	C89.429176,123.992607 94.768517,122.951874 100.553726,121.863571 
	C103.997978,123.015602 106.638000,125.141968 105.398911,128.371689 
	C104.598755,130.457352 101.631371,131.711548 99.315094,133.463287 
	C88.051941,134.044296 80.428322,139.390747 75.831329,149.631012 
	C75.099709,154.168762 74.347565,158.340408 73.787582,162.537689 
	C73.616936,163.816803 73.968376,165.167191 74.092674,166.483795 
	C75.611359,182.569870 76.410767,180.619614 63.277023,187.957550 
	C59.694420,189.108810 56.384373,190.030289 52.671139,190.917130 
	C48.244995,186.113586 48.291431,184.594345 52.792297,180.270706 
	C53.318516,179.916611 53.661552,179.881134 53.950974,179.737579 
	C63.102158,175.198380 63.207581,175.186768 62.246357,165.005676 
	C61.357166,155.587570 63.185802,146.871033 68.345856,138.503571 
	C73.523346,133.954803 78.577293,129.749161 83.860535,125.288429 
z"/>
<path fill="#DCF0FF" opacity="1.000000" stroke="none" 
	d="
M229.747787,145.941589 
	C225.867035,138.239700 219.747299,133.188553 212.361618,129.002151 
	C209.871445,127.703278 207.727646,126.462936 205.290558,125.034485 
	C204.996201,121.267624 204.995148,117.688866 204.991272,113.667694 
	C206.760071,113.769402 208.531723,114.313522 210.653275,114.874496 
	C216.417435,118.276527 221.831696,121.661697 227.575684,125.167603 
	C230.920853,128.951477 233.936279,132.614609 237.023422,136.618011 
	C236.397003,139.279175 235.776978,141.627487 234.975266,143.912048 
	C234.369431,145.638382 233.531403,147.283234 232.385666,148.985779 
	C231.314590,148.037003 230.654572,147.066803 229.747787,145.941589 
z"/>
</svg>