<svg version="1.1" id="Layer_1" xmlns="http://www.w3.org/2000/svg" xmlns:xlink="http://www.w3.org/1999/xlink" x="0px" y="0px"
	 width="100%" viewBox="0 0 512 512" enable-background="new 0 0 512 512" xml:space="preserve">
<path fill="#00A6F9" opacity="1.000000" stroke="none" 
	d="
M1.000000,480.000000 
	C1.000000,327.310699 1.000000,174.621384 1.350910,21.325817 
	C2.499322,18.625517 3.036333,16.381279 4.141503,14.464657 
	C7.979835,7.808095 13.793445,3.502258 21.000000,1.000000 
	C178.022644,1.000000 335.045288,1.000000 492.674194,1.350911 
	C495.374451,2.499324 497.618713,3.036345 499.535309,4.141507 
	C506.191925,7.979828 510.497681,13.793484 513.000000,21.000000 
	C513.000000,93.022644 513.000000,165.045288 512.661865,237.472626 
	C508.884491,235.249130 505.445282,232.620941 501.836975,229.707062 
	C496.632812,224.607391 491.597687,219.793411 486.390808,214.714722 
	C484.486908,212.667252 482.754761,210.884506 480.862213,208.803894 
	C473.470367,201.335632 466.238892,194.165237 458.838593,186.708679 
	C453.682861,181.284805 448.695984,176.147110 443.065491,170.346313 
	C446.302673,169.781601 448.658325,169.370667 451.342590,168.971558 
	C452.109344,168.997925 452.547516,169.012436 453.153168,169.306732 
	C455.187500,171.393997 457.054382,173.201508 459.067566,175.320465 
	C460.135040,176.209076 461.056244,176.786224 462.063751,177.674667 
	C467.346497,183.362671 472.385620,188.905045 477.802765,194.049316 
	C480.706787,196.807068 484.029266,196.762039 487.027771,193.519485 
	C489.967194,190.340851 493.133240,187.372101 496.192108,184.303513 
	C500.659119,179.822296 501.038818,177.912689 496.755432,173.446320 
	C489.384125,165.760056 481.612518,158.457687 473.866699,150.798370 
	C473.510071,150.355042 473.256683,150.157639 472.966003,149.677734 
	C472.962799,148.901932 472.957886,148.458679 472.965332,147.551239 
	C473.154602,128.618134 466.782501,118.755791 451.434570,115.572380 
	C446.519318,114.552879 446.007721,112.565338 445.892792,108.359131 
	C445.404755,90.495537 438.082977,75.720657 423.473602,65.462364 
	C397.212219,47.022381 362.409851,55.462410 346.757568,83.616806 
	C345.199005,86.420258 343.386688,86.824379 340.329346,86.793633 
	C336.884918,86.758987 333.008484,87.471046 330.053741,89.149826 
	C322.258759,93.578682 321.034668,100.856140 322.716675,108.849525 
	C319.748840,106.620476 317.068390,104.564140 314.397766,102.476959 
	C314.407562,102.446098 314.471252,102.434433 314.472229,102.139763 
	C314.269348,101.514244 314.065491,101.183395 313.591858,100.641510 
	C312.068970,99.655663 310.815826,98.880844 309.562653,98.106018 
	C309.403992,99.716011 308.709869,101.509941 309.187775,102.901253 
	C310.579834,106.953819 312.440765,110.845337 314.043365,115.154762 
	C312.968231,117.022835 312.016327,118.571175 310.958649,120.043564 
	C305.611664,127.487053 302.617584,135.487015 304.764496,145.048798 
	C302.417145,147.194489 300.283752,149.079208 297.797791,150.969025 
	C296.621521,150.699234 295.797760,150.424316 294.839172,149.836975 
	C290.836548,145.672318 286.968781,141.820084 282.959717,137.661514 
	C279.191071,133.748962 275.673218,130.019180 271.851318,126.632568 
	C271.006500,125.883987 269.085876,126.349480 267.660645,126.255936 
	C267.976990,127.543007 267.887878,129.214767 268.680389,130.050034 
	C271.973145,133.520309 275.531738,136.738266 279.161407,140.328094 
	C280.896362,142.443619 282.462708,144.279877 283.614288,146.114563 
	C275.136597,144.805786 267.073669,143.498611 258.565186,142.114746 
	C247.751144,142.476456 237.382675,142.914841 226.625931,143.368774 
	C209.838501,146.219513 194.583847,152.127914 180.200226,160.081940 
	C178.003189,147.613937 170.841049,139.020996 161.353912,131.906799 
	C139.089951,115.211517 104.025421,122.516579 90.663353,146.939774 
	C88.621994,150.670959 86.449455,152.182724 82.186356,152.089111 
	C71.412666,151.852585 64.928658,159.818039 67.103996,170.312775 
	C67.610207,172.754959 67.245773,174.039642 65.059647,175.628708 
	C61.229733,178.412598 57.163136,181.391586 54.529564,185.209045 
	C43.998432,200.474289 51.327755,224.631668 71.879356,228.868286 
	C75.598572,229.634979 79.457558,229.723618 83.121872,230.441330 
	C82.065750,231.930344 81.064537,233.052094 80.225395,234.284210 
	C71.501770,247.093430 69.006241,260.590759 75.857193,275.419983 
	C76.085564,276.161835 76.259361,276.571930 76.390457,277.247375 
	C76.288780,277.681854 76.229790,277.851013 75.832268,278.141998 
	C68.663391,282.340454 61.226990,285.670837 55.116486,290.633698 
	C36.860153,305.461243 27.909454,325.231537 27.508387,348.601501 
	C27.273842,362.268311 30.362873,375.332367 38.068733,387.337708 
	C42.700832,393.234650 47.271187,398.790192 51.995758,404.631470 
	C54.402203,406.662750 56.654427,408.408295 58.998383,410.381714 
	C59.402580,410.975189 59.715050,411.340851 60.170372,411.957642 
	C60.604271,412.455475 60.895321,412.702179 61.093697,412.900818 
	C61.001019,412.852814 61.099972,412.669006 61.238319,412.942017 
	C61.894585,413.498810 62.412502,413.782562 62.992874,414.403534 
	C74.360291,426.175293 85.665253,437.609863 97.140121,449.329254 
	C104.535179,456.753967 111.760353,463.893829 119.153412,471.319397 
	C121.558929,474.403320 123.796555,477.201477 125.563385,480.000122 
	C83.728386,480.000397 42.364193,480.000183 1.000000,480.000000 
z"/>
<path fill="#00A2F8" opacity="1.000000" stroke="none" 
	d="
M513.000000,478.000000 
	C513.000000,478.444458 513.000000,478.888885 512.531372,479.666687 
	C483.281799,479.668152 454.497711,479.500763 425.721130,478.945770 
	C406.958649,478.583893 388.200562,477.793396 369.454712,476.897858 
	C364.333374,476.653198 359.263306,475.335205 352.943024,474.311005 
	C355.209381,471.687683 356.386810,470.143402 357.745728,468.780029 
	C371.031616,455.450928 384.403290,442.206512 397.592529,428.782745 
	C399.471222,426.870605 400.506439,424.129761 402.107910,421.511597 
	C403.193726,420.834656 404.103699,420.418640 405.393433,419.993774 
	C409.518250,417.994598 413.263306,416.004272 417.347778,413.943726 
	C420.856842,411.273895 424.026398,408.674286 427.497742,405.919800 
	C428.230896,405.078918 428.519135,404.215912 429.115356,403.733734 
	C436.790527,397.526794 440.704834,388.937103 444.462311,379.858551 
	C445.279755,377.750122 445.857727,375.870087 446.810974,373.952148 
	C448.900513,372.666412 450.813263,371.618134 452.298767,370.140411 
	C470.239868,352.292969 488.080414,334.344238 506.066864,316.542877 
	C507.991455,314.638092 510.670776,313.495911 513.000000,312.000000 
	C513.000000,335.020905 513.000000,358.041779 512.662109,381.593384 
	C511.133789,382.998779 509.806458,383.736389 508.772797,384.768188 
	C480.477753,413.013275 452.205933,441.281616 423.966400,469.582214 
	C422.799011,470.752106 421.981995,472.271545 420.487030,474.340485 
	C451.960938,478.224182 482.482819,478.057861 513.000000,478.000000 
z"/>
<path fill="#009CF6" opacity="1.000000" stroke="none" 
	d="
M513.000000,311.531342 
	C510.670776,313.495911 507.991455,314.638092 506.066864,316.542877 
	C488.080414,334.344238 470.239868,352.292969 452.298767,370.140411 
	C450.813263,371.618134 448.900513,372.666412 446.942352,373.536255 
	C447.076996,365.773773 447.455536,358.389252 447.904785,350.578491 
	C447.223267,340.372833 444.687378,331.169830 439.103577,322.584534 
	C436.031189,318.105927 433.033325,313.970428 430.213440,309.563171 
	C433.310303,306.753754 436.229187,304.216125 439.458344,301.819183 
	C441.707916,303.757660 443.509216,305.750488 445.649109,307.264893 
	C446.611420,307.945923 448.250031,307.671295 449.581757,307.830322 
	C449.362610,306.515503 449.562622,304.871857 448.840607,303.951630 
	C447.129059,301.770294 444.980103,299.932129 443.071533,297.620636 
	C451.876526,288.326172 460.627808,279.375977 469.345703,270.393311 
	C470.331604,269.377441 471.129242,268.178833 472.353638,267.058472 
	C476.055328,268.153625 478.565125,268.270264 476.984283,263.149719 
	C483.724640,256.086700 490.136108,249.172012 496.953186,242.683487 
	C500.738892,239.080215 503.733704,235.592728 502.006042,229.992767 
	C505.445282,232.620941 508.884491,235.249130 512.661865,237.938660 
	C513.000000,262.354218 513.000000,286.708466 513.000000,311.531342 
z"/>
<path fill="#00A6F9" opacity="1.000000" stroke="none" 
	d="
M513.000000,477.531342 
	C482.482819,478.057861 451.960938,478.224182 420.487030,474.340485 
	C421.981995,472.271545 422.799011,470.752106 423.966400,469.582214 
	C452.205933,441.281616 480.477753,413.013275 508.772797,384.768188 
	C509.806458,383.736389 511.133789,382.998779 512.662109,382.062073 
	C513.000000,413.687561 513.000000,445.375122 513.000000,477.531342 
z"/>
<path fill="#009CF6" opacity="1.000000" stroke="none" 
	d="
M401.932037,421.772461 
	C400.506439,424.129761 399.471222,426.870605 397.592529,428.782745 
	C384.403290,442.206512 371.031616,455.450928 357.745728,468.780029 
	C356.386810,470.143402 355.209381,471.687683 352.943024,474.311005 
	C359.263306,475.335205 364.333374,476.653198 369.454712,476.897858 
	C388.200562,477.793396 406.958649,478.583893 425.721130,478.945770 
	C454.497711,479.500763 483.281799,479.668152 512.531372,480.000000 
	C513.000000,481.388885 513.000000,482.777802 512.531372,484.583344 
	C489.624847,484.666687 467.183594,484.479980 444.750275,483.954498 
	C426.166870,483.519226 407.588806,482.781036 389.015747,482.001221 
	C367.635284,481.103516 346.255066,480.152039 324.889984,478.952484 
	C312.320709,478.246796 299.775513,477.074677 287.234650,475.944122 
	C285.593231,475.796143 284.042267,474.644348 282.449402,473.957458 
	C283.309937,472.461304 283.898682,470.696106 285.072693,469.510315 
	C298.187988,456.263519 311.413239,443.125641 324.545441,429.895477 
	C325.906128,428.524689 326.858429,426.748566 328.464844,425.095032 
	C344.281250,424.962830 359.633026,424.896088 375.450073,424.883179 
	C384.587524,423.882172 393.259796,422.827301 401.932037,421.772461 
z"/>
<path fill="#0097F5" opacity="1.000000" stroke="none" 
	d="
M328.000183,425.160492 
	C326.858429,426.748566 325.906128,428.524689 324.545441,429.895477 
	C311.413239,443.125641 298.187988,456.263519 285.072693,469.510315 
	C283.898682,470.696106 283.309937,472.461304 282.449402,473.957458 
	C284.042267,474.644348 285.593231,475.796143 287.234650,475.944122 
	C299.775513,477.074677 312.320709,478.246796 324.889984,478.952484 
	C346.255066,480.152039 367.635284,481.103516 389.015747,482.001221 
	C407.588806,482.781036 426.166870,483.519226 444.750275,483.954498 
	C467.183594,484.479980 489.624847,484.666687 512.531372,485.000000 
	C513.000000,485.750000 513.000000,486.500000 512.531372,487.625000 
	C483.617157,487.668121 455.172180,487.277252 426.725922,487.027405 
	C410.740021,486.887024 394.740967,487.351624 378.767914,486.873016 
	C358.866852,486.276703 338.984100,485.034668 319.098145,483.982391 
	C307.666779,483.377502 296.234558,482.729919 284.820953,481.862000 
	C269.449371,480.693115 254.080658,479.441772 238.740707,477.923065 
	C232.153305,477.270905 225.641266,475.857666 217.686340,474.560516 
	C220.216080,471.658356 221.408218,470.121033 222.770950,468.753754 
	C235.349930,456.132935 247.998627,443.581146 260.506287,430.890228 
	C262.035187,429.338898 262.853363,427.087097 264.465515,425.094635 
	C285.953461,425.073059 306.976807,425.116760 328.000183,425.160492 
z"/>
<path fill="#007CE8" opacity="1.000000" stroke="none" 
	d="
M493.000000,513.000000 
	C335.975922,513.000000 178.951843,513.000000 21.328659,512.646240 
	C17.121284,510.207336 13.513018,508.122162 10.379339,506.028076 
	C26.009748,506.012787 41.165569,506.002502 56.321392,506.000854 
	C85.467346,505.997742 114.613426,506.033997 143.758942,505.921783 
	C145.704391,505.914246 149.179947,505.057007 149.333969,504.151245 
	C150.185974,499.139954 153.708939,499.833710 156.909988,500.034485 
	C176.940018,501.290863 196.947556,503.030853 216.993500,503.877502 
	C242.395370,504.950317 267.824829,505.806732 293.245758,505.907654 
	C363.527985,506.186737 433.811981,506.024689 503.949585,506.352722 
	C500.202606,508.778961 496.601318,510.889496 493.000000,513.000000 
z"/>
<path fill="#0093F3" opacity="1.000000" stroke="none" 
	d="
M264.000916,425.159912 
	C262.853363,427.087097 262.035187,429.338898 260.506287,430.890228 
	C247.998627,443.581146 235.349930,456.132935 222.770950,468.753754 
	C221.408218,470.121033 220.216080,471.658356 217.686340,474.560516 
	C225.641266,475.857666 232.153305,477.270905 238.740707,477.923065 
	C254.080658,479.441772 269.449371,480.693115 284.820953,481.862000 
	C296.234558,482.729919 307.666779,483.377502 319.098145,483.982391 
	C338.984100,485.034668 358.866852,486.276703 378.767914,486.873016 
	C394.740967,487.351624 410.740021,486.887024 426.725922,487.027405 
	C455.172180,487.277252 483.617157,487.668121 512.531372,488.000000 
	C513.000000,488.750000 513.000000,489.500000 512.531372,490.625000 
	C459.175323,490.334045 406.286346,489.768738 353.401581,488.937195 
	C338.638458,488.705109 323.879089,487.837891 309.133362,486.993042 
	C288.271484,485.797821 267.407043,484.569336 246.575241,482.949188 
	C228.563370,481.548340 210.575165,479.763000 192.620895,477.751373 
	C187.409668,477.167480 182.351288,475.219299 176.137756,473.616669 
	C178.582947,471.045441 179.800751,469.709259 181.077103,468.431519 
	C193.903946,455.590759 206.760590,442.779633 219.544678,429.896515 
	C220.905746,428.524933 221.858490,426.748138 223.465240,425.093994 
	C237.286850,425.072388 250.643875,425.116150 264.000916,425.159912 
z"/>
<path fill="#0090F2" opacity="1.000000" stroke="none" 
	d="
M223.000671,425.159363 
	C221.858490,426.748138 220.905746,428.524933 219.544678,429.896515 
	C206.760590,442.779633 193.903946,455.590759 181.077103,468.431519 
	C179.800751,469.709259 178.582947,471.045441 176.137756,473.616669 
	C182.351288,475.219299 187.409668,477.167480 192.620895,477.751373 
	C210.575165,479.763000 228.563370,481.548340 246.575241,482.949188 
	C267.407043,484.569336 288.271484,485.797821 309.133362,486.993042 
	C323.879089,487.837891 338.638458,488.705109 353.401581,488.937195 
	C406.286346,489.768738 459.175323,490.334045 512.531372,491.000000 
	C513.000000,491.444458 513.000000,491.888885 512.686829,492.752075 
	C512.188904,493.782349 512.004150,494.393890 511.362396,495.003876 
	C447.934235,494.555389 384.939514,496.332001 321.662720,492.758972 
	C307.416321,491.683411 293.498016,490.964447 279.597961,489.986359 
	C262.550018,488.786804 245.476898,487.752258 228.488129,485.952881 
	C206.545395,483.628815 184.667999,480.675323 162.781952,477.842316 
	C159.526352,477.420929 156.377365,476.175873 152.017838,474.998199 
	C154.297501,472.465302 155.425293,471.094421 156.673370,469.843597 
	C169.622482,456.866516 182.630173,443.947449 195.502090,430.894440 
	C197.032471,429.342499 197.851089,427.088684 199.464264,425.094482 
	C207.619476,425.072296 215.310074,425.115814 223.000671,425.159363 
z"/>
<path fill="#0097F5" opacity="1.000000" stroke="none" 
	d="
M1.000000,480.449982 
	C42.364193,480.000183 83.728386,480.000397 125.873314,480.045441 
	C127.433678,480.394348 128.213303,480.698395 129.160095,481.286987 
	C130.885651,483.713715 132.444046,485.855957 133.665939,488.239990 
	C131.190414,488.654541 129.051514,488.976471 126.912369,488.977966 
	C84.941597,489.007629 42.970795,489.000000 1.000000,489.000000 
	C1.000000,486.299988 1.000000,483.599976 1.000000,480.449982 
z"/>
<path fill="#0090F2" opacity="1.000000" stroke="none" 
	d="
M1.000000,489.399994 
	C42.970795,489.000000 84.941597,489.007629 126.912369,488.977966 
	C129.051514,488.976471 131.190414,488.654541 133.990677,488.297119 
	C136.098495,489.075104 137.545059,490.037842 139.039230,491.315247 
	C139.392380,492.419769 139.697922,493.209534 139.729431,494.269897 
	C136.904709,495.026550 134.354889,495.931183 131.803238,495.936432 
	C88.595444,496.025177 45.387417,496.002197 2.110248,495.654358 
	C1.694036,494.536530 1.347020,493.768250 1.000003,493.000000 
	C1.000000,491.933319 1.000000,490.866669 1.000000,489.399994 
z"/>
<path fill="#F7F9F8" opacity="1.000000" stroke="none" 
	d="
M1.000003,493.469055 
	C1.347020,493.768250 1.694036,494.536530 2.131141,495.975769 
	C3.115518,497.776031 4.009805,498.905273 4.960410,500.385254 
	C6.646066,502.503021 8.275404,504.270020 9.904747,506.036987 
	C13.513018,508.122162 17.121284,510.207336 20.864775,512.646240 
	C14.407270,513.000000 7.814542,513.000000 1.000000,513.000000 
	C1.000000,506.647736 1.000000,500.292908 1.000003,493.469055 
z"/>
<path fill="#F7F9F8" opacity="1.000000" stroke="none" 
	d="
M513.000000,20.530956 
	C510.497681,13.793484 506.191925,7.979828 499.535309,4.141507 
	C497.618713,3.036345 495.374451,2.499324 493.140198,1.350911 
	C499.592743,1.000000 506.185455,1.000000 513.000000,1.000000 
	C513.000000,7.352261 513.000000,13.707088 513.000000,20.530956 
z"/>
<path fill="#F7F9F8" opacity="1.000000" stroke="none" 
	d="
M511.819458,495.005463 
	C512.004150,494.393890 512.188904,493.782349 512.686829,493.085388 
	C513.000000,499.592743 513.000000,506.185455 513.000000,513.000000 
	C506.647736,513.000000 500.292908,513.000000 493.469055,513.000000 
	C496.601318,510.889496 500.202606,508.778961 504.281677,506.322968 
	C505.520538,505.016327 506.281586,504.055176 507.359344,502.947815 
	C509.057159,500.202881 510.438293,497.604156 511.819458,495.005463 
z"/>
<path fill="#F7F9F8" opacity="1.000000" stroke="none" 
	d="
M20.530956,1.000000 
	C13.793445,3.502258 7.979835,7.808095 4.141503,14.464657 
	C3.036333,16.381279 2.499322,18.625517 1.350910,20.859776 
	C1.000000,14.407272 1.000000,7.814544 1.000000,1.000000 
	C7.352261,1.000000 13.707088,1.000000 20.530956,1.000000 
z"/>
<path fill="#EFF4F3" opacity="1.000000" stroke="none" 
	d="
M444.222839,380.086975 
	C440.704834,388.937103 436.790527,397.526794 429.115356,403.733734 
	C428.519135,404.215912 428.230896,405.078918 427.090179,405.884766 
	C424.751282,405.794373 423.126648,405.460449 421.491302,405.395416 
	C414.583038,405.120789 407.589142,405.522552 400.778076,404.580994 
	C385.573334,402.479034 370.438904,402.436615 355.227295,404.164825 
	C348.173523,404.966217 341.077911,405.398895 333.728699,405.843567 
	C332.304901,404.790619 331.153656,403.892883 329.833008,402.705872 
	C325.915131,398.971497 321.460938,396.017242 318.623688,391.938293 
	C315.971863,388.125854 313.316772,386.911133 308.887085,386.916534 
	C218.593811,387.026520 128.300385,386.997528 38.006992,386.996307 
	C30.362873,375.332367 27.273842,362.268311 27.508387,348.601501 
	C27.909454,325.231537 36.860153,305.461243 55.116486,290.633698 
	C61.226990,285.670837 68.663391,282.340454 76.038635,278.038330 
	C76.834091,277.620453 77.029205,277.382568 77.536606,277.056152 
	C80.259293,276.327515 82.614258,275.641876 85.362823,274.946289 
	C87.831551,274.620117 89.906654,274.303864 92.349747,273.928833 
	C97.082298,273.071320 98.926041,270.812683 99.155418,266.027374 
	C99.960464,249.232086 115.564690,236.130051 130.552673,236.757202 
	C137.693649,237.056000 143.767242,239.344452 150.128571,242.277542 
	C150.838699,243.369232 151.417831,244.185867 151.998260,245.415161 
	C153.014496,249.829422 154.029419,253.831009 155.044342,257.832611 
	C155.595016,257.791809 156.145691,257.751038 156.696365,257.710266 
	C157.605286,256.580536 158.498932,255.438126 159.425568,254.323105 
	C166.423218,245.902527 172.871033,236.938843 180.530609,229.170212 
	C206.713089,202.614899 238.310547,185.706223 274.941040,178.596558 
	C289.833710,175.706009 304.913788,174.955475 320.081940,176.848877 
	C326.289520,177.623764 332.589233,177.660538 339.151672,178.180710 
	C341.286072,180.254990 343.115753,182.181671 345.107422,184.398758 
	C347.540924,187.720764 349.812439,190.752365 351.812317,194.043076 
	C350.266449,194.339172 348.922333,194.662048 347.728363,194.370331 
	C329.586365,189.937439 311.254272,186.593903 292.564880,189.144562 
	C280.105988,190.844925 267.266754,192.376328 255.602554,196.696350 
	C235.844559,204.014069 217.247986,213.545609 200.923111,227.883942 
	C183.148163,243.495834 171.149384,262.495911 160.934998,283.167969 
	C159.546951,285.977081 160.330170,287.652008 163.532227,288.000702 
	C166.661499,288.341553 169.792145,288.954651 172.922638,288.957581 
	C234.714691,289.014984 296.506836,288.989655 358.298920,289.045929 
	C360.544861,289.047974 362.790222,289.708435 364.753052,290.284088 
	C353.083649,294.206512 342.033905,298.494171 333.689667,308.165710 
	C326.906281,314.430725 321.032593,320.943115 318.688202,330.190613 
	C313.352448,339.115601 312.137756,348.485138 313.400360,358.377625 
	C314.961731,357.430939 315.884644,356.313751 316.404358,355.032959 
	C320.400574,345.184662 326.382812,336.982788 334.434662,329.848846 
	C349.956329,316.096649 367.844788,311.000488 387.921875,314.326050 
	C417.909607,319.293182 440.727722,344.894897 442.093506,375.441681 
	C442.164001,377.018677 443.484344,378.539825 444.222839,380.086975 
M433.040680,384.365845 
	C436.532959,367.427368 431.736786,351.919220 420.777527,339.810120 
	C402.067444,319.136963 373.883881,312.663910 348.327301,327.929260 
	C341.501160,332.006653 334.424530,336.075836 330.410126,343.423981 
	C325.967743,351.555450 321.614868,359.521393 320.451019,369.207611 
	C319.221954,379.436249 322.184998,387.917938 327.526642,395.974548 
	C328.682678,397.718170 331.201752,399.541412 333.142303,399.596649 
	C338.894226,399.760376 344.692017,399.254120 350.430237,398.628235 
	C354.285034,398.207794 355.427826,396.234924 353.362823,392.403717 
	C352.360077,390.543274 352.154724,387.896240 352.499268,385.751709 
	C352.990417,382.694855 354.165771,379.711578 355.321869,376.805511 
	C357.708313,370.806580 360.594818,365.724518 368.069336,364.292297 
	C375.515442,362.865509 382.635498,363.444977 389.683777,365.337311 
	C391.917786,365.937103 394.324402,368.127594 395.431000,370.232178 
	C397.802460,374.742310 399.545227,379.613770 401.199463,384.455475 
	C401.881012,386.450287 402.069000,388.810364 401.749390,390.891907 
	C401.463989,392.750671 400.170593,394.454651 399.116058,396.657043 
	C406.832306,401.147827 414.925385,400.460999 422.943512,399.413452 
	C427.633118,398.800781 430.828766,396.189423 431.279144,390.962067 
	C431.447815,389.004608 432.267700,387.103241 433.040680,384.365845 
z"/>
<path fill="#008BF2" opacity="1.000000" stroke="none" 
	d="
M83.252014,230.125305 
	C79.457558,229.723618 75.598572,229.634979 71.879356,228.868286 
	C51.327755,224.631668 43.998432,200.474289 54.529564,185.209045 
	C57.163136,181.391586 61.229733,178.412598 65.059647,175.628708 
	C67.245773,174.039642 67.610207,172.754959 67.103996,170.312775 
	C64.928658,159.818039 71.412666,151.852585 82.186356,152.089111 
	C86.449455,152.182724 88.621994,150.670959 90.663353,146.939774 
	C104.025421,122.516579 139.089951,115.211517 161.353912,131.906799 
	C170.841049,139.020996 178.003189,147.613937 179.952789,160.297485 
	C175.936356,163.592896 171.980545,166.069733 168.322189,168.927353 
	C154.556625,179.679886 142.883530,192.272415 134.493927,208.106552 
	C132.189026,212.297592 130.148636,216.282654 127.689819,220.270172 
	C121.516426,219.581772 115.761475,218.890900 109.590332,218.142731 
	C98.938354,218.664459 90.788643,223.734909 83.252014,230.125305 
z"/>
<path fill="#008BF2" opacity="1.000000" stroke="none" 
	d="
M451.014008,168.959732 
	C448.658325,169.370667 446.302673,169.781601 443.065491,170.346313 
	C448.695984,176.147110 453.682861,181.284805 458.774597,187.046906 
	C454.927032,191.447845 450.974640,195.224350 446.832886,198.669556 
	C444.742889,192.893250 442.842194,187.448242 440.986206,181.640533 
	C439.366943,177.808731 437.702972,174.339600 436.308777,170.670532 
	C439.206024,169.734497 441.190155,168.697464 438.353424,165.896423 
	C428.584686,156.250427 418.788269,146.632446 408.834900,136.716553 
	C395.958008,123.640823 383.267548,110.833328 370.502075,98.101044 
	C369.514038,97.115593 367.999084,96.658440 366.527954,95.680115 
	C364.647278,90.466263 361.604614,88.263596 357.277649,89.120224 
	C352.614960,90.043327 350.760132,93.185425 350.906036,97.757240 
	C350.964020,99.573608 351.030029,101.402298 350.891113,103.209908 
	C350.526703,107.951393 352.462402,111.143074 357.129639,113.027969 
	C361.846222,118.178131 366.420105,123.011513 370.576447,127.883102 
	C360.545258,128.182999 350.931671,128.444672 341.155823,128.361877 
	C334.997101,121.685692 329.000580,115.353973 323.004059,109.022247 
	C321.034668,100.856140 322.258759,93.578682 330.053741,89.149826 
	C333.008484,87.471046 336.884918,86.758987 340.329346,86.793633 
	C343.386688,86.824379 345.199005,86.420258 346.757568,83.616806 
	C362.409851,55.462410 397.212219,47.022381 423.473602,65.462364 
	C438.082977,75.720657 445.404755,90.495537 445.892792,108.359131 
	C446.007721,112.565338 446.519318,114.552879 451.434570,115.572380 
	C466.782501,118.755791 473.154602,128.618134 472.633423,147.483093 
	C468.860687,144.919662 465.432159,141.960144 461.834778,138.714264 
	C457.914917,134.940063 454.164001,131.452179 450.329987,127.627930 
	C449.055664,124.444366 447.362915,125.200478 445.670990,126.719749 
	C444.091736,128.137833 442.603638,129.657425 440.910461,130.832672 
	C430.399536,120.338081 420.053497,110.143150 409.502075,99.689346 
	C407.479523,97.021370 405.847260,97.703415 404.861694,100.008652 
	C403.048553,104.249619 401.296021,108.545906 400.010529,112.962440 
	C399.688141,114.070068 401.235474,115.721909 402.002563,117.452843 
	C414.721466,130.522385 427.361328,143.262726 440.167542,156.290497 
	C443.893951,160.705200 447.453979,164.832458 451.014008,168.959732 
z"/>
<path fill="#ECEFEF" opacity="1.000000" stroke="none" 
	d="
M38.068733,387.337708 
	C128.300385,386.997528 218.593811,387.026520 308.887085,386.916534 
	C313.316772,386.911133 315.971863,388.125854 318.623688,391.938293 
	C321.460938,396.017242 325.915131,398.971497 329.364075,402.707397 
	C239.026352,402.998749 148.988113,402.989105 58.949955,403.056335 
	C56.580166,403.058105 54.210999,403.897186 51.841541,404.345764 
	C47.271187,398.790192 42.700832,393.234650 38.068733,387.337708 
z"/>
<path fill="#0296F4" opacity="1.000000" stroke="none" 
	d="
M447.022217,199.000854 
	C450.974640,195.224350 454.927032,191.447845 458.943420,187.333099 
	C466.238892,194.165237 473.470367,201.335632 480.397797,208.823700 
	C476.607269,209.153427 473.082397,208.846191 469.644196,209.259720 
	C465.501404,209.757980 463.104034,212.458801 463.021362,216.707474 
	C462.939758,220.899506 465.031586,223.754044 469.233795,224.468811 
	C471.825531,224.909653 474.523773,224.860352 477.170532,224.815323 
	C484.087555,224.697693 486.480103,222.137695 486.562531,214.979431 
	C491.597687,219.793411 496.632812,224.607391 501.836975,229.707062 
	C503.733704,235.592728 500.738892,239.080215 496.953186,242.683487 
	C490.136108,249.172012 483.724640,256.086700 476.636353,263.012756 
	C471.833801,261.544678 467.591064,259.720947 463.209198,258.338348 
	C462.009216,257.959717 460.391998,258.903503 458.966248,259.240448 
	C459.820770,260.437988 460.416168,262.150970 461.578857,262.735413 
	C464.934845,264.422272 468.519379,265.654327 472.014191,267.064972 
	C471.129242,268.178833 470.331604,269.377441 469.345703,270.393311 
	C460.627808,279.375977 451.876526,288.326172 442.761139,297.510742 
	C441.440643,296.834839 440.632751,295.640839 439.511108,295.110870 
	C438.226410,294.503845 436.663147,294.486359 435.220917,294.212738 
	C435.531342,295.638794 435.573059,297.206116 436.227753,298.451141 
	C436.881836,299.694885 438.149445,300.615967 439.148102,301.678497 
	C436.229187,304.216125 433.310303,306.753754 429.925110,309.410400 
	C421.547577,304.124329 413.636353,298.719269 406.057617,293.143616 
	C417.800781,285.811646 427.128052,276.581146 434.417542,264.861450 
	C437.565338,258.484436 440.426208,252.287735 443.539856,245.825775 
	C447.969269,233.004837 449.279846,220.152344 447.825439,206.613434 
	C447.584778,203.811996 447.303497,201.406418 447.022217,199.000854 
z"/>
<path fill="#008BF2" opacity="1.000000" stroke="none" 
	d="
M128.992935,481.002441 
	C128.213303,480.698395 127.433678,480.394348 126.344116,480.044983 
	C123.796555,477.201477 121.558929,474.403320 119.218025,470.977936 
	C120.330772,468.812622 121.410896,467.139526 122.784172,465.757721 
	C134.691788,453.776245 146.673508,441.868408 158.567032,429.873077 
	C159.920074,428.508484 160.865891,426.740112 162.465149,425.093658 
	C174.953079,425.072266 186.976364,425.116241 198.999634,425.160217 
	C197.851089,427.088684 197.032471,429.342499 195.502090,430.894440 
	C182.630173,443.947449 169.622482,456.866516 156.673370,469.843597 
	C155.425293,471.094421 154.297501,472.465302 152.017838,474.998199 
	C156.377365,476.175873 159.526352,477.420929 162.781952,477.842316 
	C184.667999,480.675323 206.545395,483.628815 228.488129,485.952881 
	C245.476898,487.752258 262.550018,488.786804 279.597961,489.986359 
	C293.498016,490.964447 307.416321,491.683411 321.326508,493.000427 
	C319.687622,493.655731 318.041595,494.027710 316.411011,493.969238 
	C298.825562,493.338501 281.241669,492.661469 263.659302,491.949707 
	C256.364227,491.654419 249.062698,491.395386 241.783508,490.857269 
	C225.586563,489.659912 209.388214,488.444946 193.216324,486.956085 
	C179.524231,485.695526 165.878891,483.932892 152.192566,482.600861 
	C144.480545,481.850281 136.727493,481.521332 128.992935,481.002441 
z"/>
<path fill="#E5E9EA" opacity="1.000000" stroke="none" 
	d="
M91.981758,273.987610 
	C89.906654,274.303864 87.831551,274.620117 85.370422,274.485992 
	C84.987259,272.874359 85.035423,271.711151 84.986244,270.552094 
	C84.051231,248.515045 98.692871,230.491028 119.538834,224.679230 
	C123.007637,223.712143 126.514282,222.880768 130.342224,222.044540 
	C131.780930,222.409988 132.880844,222.717590 134.162613,223.306992 
	C142.347382,229.966507 142.217590,229.840744 146.914703,224.579758 
	C158.641556,211.445160 170.784454,198.824936 185.000046,188.176224 
	C211.075562,168.643417 240.032578,156.309128 272.069458,150.853867 
	C276.785339,150.050842 281.364014,148.442276 286.370850,147.189819 
	C289.481689,148.165298 292.227844,149.157349 294.974030,150.149414 
	C295.797760,150.424316 296.621521,150.699234 298.087372,151.149200 
	C302.849060,153.534836 306.968658,155.745422 310.699677,158.125839 
	C304.218506,158.855713 298.134552,159.545135 292.031769,159.953171 
	C266.829895,161.638245 242.961472,168.388550 220.353607,179.399734 
	C191.952408,193.232529 168.253326,212.960052 148.710358,237.840485 
	C145.358261,232.916504 141.112946,230.520615 135.358154,230.273270 
	C122.104889,229.703674 110.561890,232.932449 101.614769,243.492996 
	C94.075989,252.391235 91.504112,262.658569 91.981758,273.987610 
z"/>
<path fill="#FFCB6A" opacity="1.000000" stroke="none" 
	d="
M311.088226,157.956009 
	C306.968658,155.745422 302.849060,153.534836 298.439941,151.144089 
	C300.283752,149.079208 302.417145,147.194489 305.075348,144.960052 
	C307.052399,143.698318 308.504639,142.786331 310.100220,142.249908 
	C311.742340,143.084488 313.240082,143.939774 314.740112,143.943863 
	C343.682495,144.022812 372.625366,144.045212 401.567261,143.901291 
	C403.425323,143.892059 405.276184,142.438156 407.413696,141.729645 
	C408.073120,141.896713 408.449219,141.990448 409.007507,142.378372 
	C416.374207,149.784744 423.558716,156.896912 430.338867,164.037476 
	C427.138580,164.377213 424.343170,164.953156 421.546539,164.959259 
	C391.576599,165.024689 361.606354,164.965759 331.636688,165.082016 
	C329.759399,165.089310 327.886719,166.274323 325.739105,166.862885 
	C324.992004,166.534897 324.517670,166.255447 323.858673,165.684738 
	C319.478760,162.914322 315.283478,160.435165 311.088226,157.956009 
z"/>
<path fill="#DDE1E1" opacity="1.000000" stroke="none" 
	d="
M286.006195,147.206421 
	C281.364014,148.442276 276.785339,150.050842 272.069458,150.853867 
	C240.032578,156.309128 211.075562,168.643417 185.000046,188.176224 
	C170.784454,198.824936 158.641556,211.445160 146.914703,224.579758 
	C142.217590,229.840744 142.347382,229.966507 134.453995,223.134094 
	C135.608200,221.616394 136.651962,220.552505 137.697647,219.490509 
	C148.175842,208.848801 157.846832,197.230301 169.298218,187.766068 
	C194.363770,167.050110 222.946655,152.703384 254.705582,144.985352 
	C256.274323,144.604126 257.581665,143.147369 259.010742,142.191422 
	C267.073669,143.498611 275.136597,144.805786 283.811768,146.321426 
	C284.951385,146.755386 285.478790,146.980911 286.006195,147.206421 
z"/>
<path fill="#0088EE" opacity="1.000000" stroke="none" 
	d="
M162.000519,425.158997 
	C160.865891,426.740112 159.920074,428.508484 158.567032,429.873077 
	C146.673508,441.868408 134.691788,453.776245 122.784172,465.757721 
	C121.410896,467.139526 120.330772,468.812622 119.050133,470.692200 
	C111.760353,463.893829 104.535179,456.753967 97.363876,449.079163 
	C104.056427,442.078156 110.742981,435.659668 117.280319,429.092682 
	C118.221710,428.147095 118.444908,426.486481 119.465012,425.091003 
	C133.953217,425.069824 147.976868,425.114410 162.000519,425.158997 
z"/>
<path fill="#E5E9EA" opacity="1.000000" stroke="none" 
	d="
M51.995758,404.631470 
	C54.210999,403.897186 56.580166,403.058105 58.949955,403.056335 
	C148.988113,402.989105 239.026352,402.998749 329.533508,402.996613 
	C331.153656,403.892883 332.304901,404.790619 333.848083,406.095581 
	C334.494751,406.998505 334.749542,407.494202 334.535400,407.992188 
	C330.069672,407.996307 326.072815,407.999756 322.075989,407.999786 
	C237.143082,408.000122 152.210144,407.979584 67.277390,408.090698 
	C64.486244,408.094330 61.696861,409.435944 58.906658,410.153870 
	C56.654427,408.408295 54.402203,406.662750 51.995758,404.631470 
z"/>
<path fill="#D4DCDC" opacity="1.000000" stroke="none" 
	d="
M258.565186,142.114746 
	C257.581665,143.147369 256.274323,144.604126 254.705582,144.985352 
	C222.946655,152.703384 194.363770,167.050110 169.298218,187.766068 
	C157.846832,197.230301 148.175842,208.848801 137.697647,219.490509 
	C136.651962,220.552505 135.608200,221.616394 134.272156,222.852295 
	C132.880844,222.717590 131.780930,222.409988 130.182251,221.843781 
	C129.158401,221.146011 128.633331,220.706879 128.108246,220.267731 
	C130.148636,216.282654 132.189026,212.297592 134.850128,208.079559 
	C137.040436,206.674286 138.739700,205.639908 140.158203,204.306793 
	C148.148636,196.797501 155.665253,188.723862 164.102966,181.763351 
	C181.125488,167.720947 200.091797,156.747757 220.448502,148.160706 
	C222.880341,147.134888 224.837204,144.983109 227.014221,143.353226 
	C237.382675,142.914841 247.751144,142.476456 258.565186,142.114746 
z"/>
<path fill="#DDE1E1" opacity="1.000000" stroke="none" 
	d="
M58.998386,410.381714 
	C61.696861,409.435944 64.486244,408.094330 67.277390,408.090698 
	C152.210144,407.979584 237.143082,408.000122 322.075989,407.999786 
	C326.072815,407.999756 330.069672,407.996307 334.816132,408.155609 
	C337.053497,409.538025 338.541229,410.759308 339.557129,411.986633 
	C249.666321,411.995514 160.247345,411.989899 70.828400,412.043274 
	C68.217628,412.044830 65.607231,412.669647 62.677792,412.957947 
	C61.939274,412.831024 61.519623,412.750000 61.099972,412.669006 
	C61.099972,412.669006 61.001019,412.852814 61.048447,412.590271 
	C60.739761,412.120636 60.383648,411.913544 60.027527,411.706482 
	C59.715050,411.340851 59.402580,410.975189 58.998386,410.381714 
z"/>
<path fill="#0097F5" opacity="1.000000" stroke="none" 
	d="
M474.008911,150.994202 
	C481.612518,158.457687 489.384125,165.760056 496.755432,173.446320 
	C501.038818,177.912689 500.659119,179.822296 496.192108,184.303513 
	C493.133240,187.372101 489.967194,190.340851 487.027771,193.519485 
	C484.029266,196.762039 480.706787,196.807068 477.802765,194.049316 
	C472.385620,188.905045 467.346497,183.362671 462.420105,177.537918 
	C467.055450,175.132294 471.472168,173.277222 475.744598,171.134476 
	C476.647034,170.681885 477.021149,169.175980 477.638702,168.155396 
	C476.707458,167.648987 475.450195,166.471069 474.895538,166.740356 
	C469.503540,169.358063 464.229187,172.218094 458.921265,175.009033 
	C457.054382,173.201508 455.187500,171.393997 453.476562,169.153992 
	C462.170197,165.801132 467.893250,159.789078 472.284851,151.952728 
	C473.050079,151.601288 473.529510,151.297729 474.008911,150.994202 
z"/>
<path fill="#0083EB" opacity="1.000000" stroke="none" 
	d="
M119.000473,425.156799 
	C118.444908,426.486481 118.221710,428.147095 117.280319,429.092682 
	C110.742981,435.659668 104.056427,442.078156 97.193977,448.794312 
	C85.665253,437.609863 74.360291,426.175293 63.058083,414.338562 
	C63.060829,413.936340 63.188808,413.806641 63.524384,413.883270 
	C66.095909,415.047150 68.331848,416.134399 70.831512,417.477051 
	C75.064308,419.129700 79.033363,420.527008 83.327499,422.128143 
	C89.810654,423.215485 95.944984,424.386475 102.133820,424.897278 
	C107.725082,425.358826 113.375916,425.098663 119.000473,425.156799 
z"/>
<path fill="#CAD4D3" opacity="1.000000" stroke="none" 
	d="
M226.625931,143.368774 
	C224.837204,144.983109 222.880341,147.134888 220.448502,148.160706 
	C200.091797,156.747757 181.125488,167.720947 164.102966,181.763351 
	C155.665253,188.723862 148.148636,196.797501 140.158203,204.306793 
	C138.739700,205.639908 137.040436,206.674286 135.114609,207.873596 
	C142.883530,192.272415 154.556625,179.679886 168.322189,168.927353 
	C171.980545,166.069733 175.936356,163.592896 180.003021,160.725677 
	C194.583847,152.127914 209.838501,146.219513 226.625931,143.368774 
z"/>
<path fill="#DDE1E1" opacity="1.000000" stroke="none" 
	d="
M127.689819,220.270172 
	C128.633331,220.706879 129.158401,221.146011 129.843475,221.785919 
	C126.514282,222.880768 123.007637,223.712143 119.538834,224.679230 
	C98.692871,230.491028 84.051231,248.515045 84.986244,270.552094 
	C85.035423,271.711151 84.987259,272.874359 84.976807,274.495911 
	C82.614258,275.641876 80.259293,276.327515 77.353294,277.017151 
	C76.802261,277.021179 76.433159,276.982056 76.433159,276.982056 
	C76.259361,276.571930 76.085564,276.161835 76.126480,275.106750 
	C77.031776,269.411652 77.463310,264.309662 78.460670,259.320831 
	C81.669563,243.269760 90.916168,231.527008 104.709320,223.046265 
	C106.711411,221.815277 108.252243,219.834091 110.006516,218.200043 
	C115.761475,218.890900 121.516426,219.581772 127.689819,220.270172 
z"/>
<path fill="#0083EB" opacity="1.000000" stroke="none" 
	d="
M471.999084,152.000610 
	C467.893250,159.789078 462.170197,165.801132 453.309082,168.874222 
	C452.547516,169.012436 452.109344,168.997925 451.342590,168.971558 
	C447.453979,164.832458 443.893951,160.705200 440.563690,156.288742 
	C442.971649,155.056320 445.555176,154.574387 447.252136,153.083435 
	C452.354736,148.600189 457.111786,143.723694 462.003662,139.000610 
	C465.432159,141.960144 468.860687,144.919662 472.621094,147.947311 
	C472.957886,148.458679 472.962799,148.901932 472.765045,149.878372 
	C472.374634,150.941254 472.186859,151.470932 471.999084,152.000610 
z"/>
<path fill="#D4DCDC" opacity="1.000000" stroke="none" 
	d="
M109.590332,218.142731 
	C108.252243,219.834091 106.711411,221.815277 104.709320,223.046265 
	C90.916168,231.527008 81.669563,243.269760 78.460670,259.320831 
	C77.463310,264.309662 77.031776,269.411652 76.071915,274.775024 
	C69.006241,260.590759 71.501770,247.093430 80.225395,234.284210 
	C81.064537,233.052094 82.065750,231.930344 83.121872,230.441330 
	C90.788643,223.734909 98.938354,218.664459 109.590332,218.142731 
z"/>
<path fill="#008BF2" opacity="1.000000" stroke="none" 
	d="
M309.956879,141.874344 
	C308.504639,142.786331 307.052399,143.698318 305.289337,144.699066 
	C302.617584,135.487015 305.611664,127.487053 310.958649,120.043564 
	C312.016327,118.571175 312.968231,117.022835 314.297852,115.285767 
	C315.399170,115.584435 316.171478,116.106865 317.083282,116.954300 
	C321.862915,121.888283 326.503052,126.497261 330.888367,131.362244 
	C323.741302,135.036942 316.849091,138.455643 309.956879,141.874344 
z"/>
<path fill="#EFBC0F" opacity="1.000000" stroke="none" 
	d="
M486.390808,214.714722 
	C486.480103,222.137695 484.087555,224.697693 477.170532,224.815323 
	C474.523773,224.860352 471.825531,224.909653 469.233795,224.468811 
	C465.031586,223.754044 462.939758,220.899506 463.021362,216.707474 
	C463.104034,212.458801 465.501404,209.757980 469.644196,209.259720 
	C473.082397,208.846191 476.607269,209.153427 480.558167,209.121552 
	C482.754761,210.884506 484.486908,212.667252 486.390808,214.714722 
z"/>
<path fill="#0374EB" opacity="1.000000" stroke="none" 
	d="
M331.143188,131.106232 
	C326.503052,126.497261 321.862915,121.888283 317.388824,116.777771 
	C317.800720,114.714386 318.595428,112.985741 318.181702,111.624329 
	C317.229370,108.490601 315.689423,105.535439 314.387939,102.507812 
	C317.068390,104.564140 319.748840,106.620476 322.716675,108.849525 
	C329.000580,115.353973 334.997101,121.685692 340.809326,128.483795 
	C337.464447,129.668884 334.303802,130.387558 331.143188,131.106232 
z"/>
<path fill="#EFBC0F" opacity="1.000000" stroke="none" 
	d="
M459.067566,175.320480 
	C464.229187,172.218094 469.503540,169.358063 474.895538,166.740356 
	C475.450195,166.471069 476.707458,167.648987 477.638702,168.155396 
	C477.021149,169.175980 476.647034,170.681885 475.744598,171.134476 
	C471.472168,173.277222 467.055450,175.132294 462.333771,177.226624 
	C461.056244,176.786224 460.135040,176.209076 459.067566,175.320480 
z"/>
<path fill="#EFBC0F" opacity="1.000000" stroke="none" 
	d="
M278.992798,140.048813 
	C275.531738,136.738266 271.973145,133.520309 268.680389,130.050034 
	C267.887878,129.214767 267.976990,127.543007 267.660645,126.255936 
	C269.085876,126.349480 271.006500,125.883987 271.851318,126.632568 
	C275.673218,130.019180 279.191071,133.748962 282.825134,138.011414 
	C281.552155,139.128067 280.272491,139.588440 278.992798,140.048813 
z"/>
<path fill="#EFBC0F" opacity="1.000000" stroke="none" 
	d="
M314.397766,102.476959 
	C315.689423,105.535439 317.229370,108.490601 318.181702,111.624329 
	C318.595428,112.985741 317.800720,114.714386 317.249329,116.452759 
	C316.171478,116.106865 315.399170,115.584435 314.372314,114.931015 
	C312.440765,110.845337 310.579834,106.953819 309.187775,102.901253 
	C308.709869,101.509941 309.403992,99.716011 309.562653,98.106018 
	C310.815826,98.880844 312.068970,99.655663 313.606995,100.936661 
	C314.084991,101.773361 314.278137,102.103897 314.471252,102.434433 
	C314.471252,102.434433 314.407562,102.446098 314.397766,102.476959 
z"/>
<path fill="#0374EB" opacity="1.000000" stroke="none" 
	d="
M279.161407,140.328094 
	C280.272491,139.588440 281.552155,139.128067 282.966431,138.317780 
	C286.968781,141.820084 290.836548,145.672318 294.839172,149.836975 
	C292.227844,149.157349 289.481689,148.165298 286.370850,147.189819 
	C285.478790,146.980911 284.951385,146.755386 284.226501,146.322998 
	C282.462708,144.279877 280.896362,142.443619 279.161407,140.328094 
z"/>
<path fill="#008BF2" opacity="1.000000" stroke="none" 
	d="
M472.284882,151.952728 
	C472.186859,151.470932 472.374634,150.941254 472.763367,150.210938 
	C473.256683,150.157639 473.510071,150.355042 473.866699,150.798370 
	C473.529510,151.297729 473.050079,151.601288 472.284882,151.952728 
z"/>
<path fill="#0083EB" opacity="1.000000" stroke="none" 
	d="
M61.238319,412.942017 
	C61.519623,412.750000 61.939274,412.831024 62.731915,413.157166 
	C63.104904,413.402313 63.188808,413.806641 63.188808,413.806641 
	C63.188808,413.806641 63.060829,413.936340 62.995621,414.001343 
	C62.412502,413.782562 61.894585,413.498810 61.238319,412.942017 
z"/>
<path fill="#0083EB" opacity="1.000000" stroke="none" 
	d="
M60.170372,411.957642 
	C60.383648,411.913544 60.739761,412.120636 61.141129,412.638275 
	C60.895321,412.702179 60.604271,412.455475 60.170372,411.957642 
z"/>
<path fill="#0374EB" opacity="1.000000" stroke="none" 
	d="
M314.472229,102.139763 
	C314.278137,102.103897 314.084991,101.773361 313.876709,101.147690 
	C314.065491,101.183395 314.269348,101.514244 314.472229,102.139763 
z"/>
<path fill="#D4DCDC" opacity="1.000000" stroke="none" 
	d="
M76.390457,277.247375 
	C76.433159,276.982056 76.802261,277.021179 76.985580,277.060181 
	C77.029205,277.382568 76.834091,277.620453 76.377182,277.916504 
	C76.229790,277.851013 76.288780,277.681854 76.390457,277.247375 
z"/>
<path fill="#ECEFEF" opacity="1.000000" stroke="none" 
	d="
M444.462311,379.858551 
	C443.484344,378.539825 442.164001,377.018677 442.093506,375.441681 
	C440.727722,344.894897 417.909607,319.293182 387.921875,314.326050 
	C367.844788,311.000488 349.956329,316.096649 334.434662,329.848846 
	C326.382812,336.982788 320.400574,345.184662 316.404358,355.032959 
	C315.884644,356.313751 314.961731,357.430939 313.400360,358.377625 
	C312.137756,348.485138 313.352448,339.115601 319.029724,330.129089 
	C323.873444,326.403107 327.950684,322.754150 332.311676,319.483490 
	C369.254639,291.776886 423.182220,304.636963 444.066467,346.021973 
	C444.989441,347.850891 446.563354,349.351318 447.834045,351.004761 
	C447.455536,358.389252 447.076996,365.773773 446.567078,373.574158 
	C445.857727,375.870087 445.279755,377.750122 444.462311,379.858551 
z"/>
<path fill="#ECEFEF" opacity="1.000000" stroke="none" 
	d="
M340.028992,411.980591 
	C338.541229,410.759308 337.053497,409.538025 335.285034,408.153320 
	C334.749542,407.494202 334.494751,406.998505 334.120605,406.250793 
	C341.077911,405.398895 348.173523,404.966217 355.227295,404.164825 
	C370.438904,402.436615 385.573334,402.479034 400.778076,404.580994 
	C407.589142,405.522552 414.583038,405.120789 421.491302,405.395416 
	C423.126648,405.460449 424.751282,405.794373 426.788422,406.039642 
	C424.026398,408.674286 420.856842,411.273895 417.123688,413.625000 
	C413.205811,412.864655 409.855255,412.326721 406.496552,411.845642 
	C391.559967,409.706238 376.622711,407.539154 361.497375,410.006378 
	C355.331024,411.012207 349.165253,412.021149 342.686584,412.975159 
	C341.592285,412.607971 340.810638,412.294281 340.028992,411.980591 
z"/>
<path fill="#E5E9EA" opacity="1.000000" stroke="none" 
	d="
M342.999207,413.028687 
	C349.165253,412.021149 355.331024,411.012207 361.497375,410.006378 
	C376.622711,407.539154 391.559967,409.706238 406.496552,411.845642 
	C409.855255,412.326721 413.205811,412.864655 416.784241,413.695190 
	C413.263306,416.004272 409.518250,417.994598 405.068359,419.801025 
	C403.498749,419.143280 402.675781,418.366913 401.763031,418.240875 
	C387.694580,416.298431 373.584808,415.404663 359.455566,417.458038 
	C357.549530,417.735046 355.799042,419.082489 353.721741,419.835388 
	C352.978699,419.488251 352.490509,419.240051 351.767029,418.743713 
	C349.025391,417.321228 346.519073,416.146881 343.893311,414.725403 
	C343.515656,413.995087 343.257446,413.511871 342.999207,413.028687 
z"/>
<path fill="#DDE1E1" opacity="1.000000" stroke="none" 
	d="
M353.976532,419.934296 
	C355.799042,419.082489 357.549530,417.735046 359.455566,417.458038 
	C373.584808,415.404663 387.694580,416.298431 401.763031,418.240875 
	C402.675781,418.366913 403.498749,419.143280 404.688568,419.809875 
	C404.103699,420.418640 403.193726,420.834656 402.107910,421.511597 
	C393.259796,422.827301 384.587524,423.882172 375.113373,424.683289 
	C367.533142,422.931152 360.754852,421.432739 353.976532,419.934296 
z"/>
<path fill="#E5E9EA" opacity="1.000000" stroke="none" 
	d="
M447.904785,350.578491 
	C446.563354,349.351318 444.989441,347.850891 444.066467,346.021973 
	C423.182220,304.636963 369.254639,291.776886 332.311676,319.483490 
	C327.950684,322.754150 323.873444,326.403107 319.323181,329.938232 
	C321.032593,320.943115 326.906281,314.430725 334.075562,308.147766 
	C338.752380,306.389832 342.702942,304.661957 346.768097,303.268158 
	C378.443787,292.407745 407.217682,297.220520 432.835602,319.233154 
	C434.660553,320.801239 437.050720,321.711487 439.178101,322.927643 
	C444.687378,331.169830 447.223267,340.372833 447.904785,350.578491 
z"/>
<path fill="#DDE1E1" opacity="1.000000" stroke="none" 
	d="
M439.103577,322.584534 
	C437.050720,321.711487 434.660553,320.801239 432.835602,319.233154 
	C407.217682,297.220520 378.443787,292.407745 346.768097,303.268158 
	C342.702942,304.661957 338.752380,306.389832 334.362823,307.980865 
	C342.033905,298.494171 353.083649,294.206512 365.179047,290.264618 
	C370.276123,289.659729 374.664368,289.296387 379.509735,288.933655 
	C388.552917,290.394257 397.139008,291.854218 405.725098,293.314209 
	C413.636353,298.719269 421.547577,304.124329 429.747131,309.682190 
	C433.033325,313.970428 436.031189,318.105927 439.103577,322.584534 
z"/>
<path fill="#EFBC0F" opacity="1.000000" stroke="none" 
	d="
M439.458344,301.819183 
	C438.149445,300.615967 436.881836,299.694885 436.227753,298.451141 
	C435.573059,297.206116 435.531342,295.638794 435.220917,294.212738 
	C436.663147,294.486359 438.226410,294.503845 439.511108,295.110870 
	C440.632751,295.640839 441.440643,296.834839 442.697571,297.845367 
	C444.980103,299.932129 447.129059,301.770294 448.840607,303.951630 
	C449.562622,304.871857 449.362610,306.515503 449.581757,307.830322 
	C448.250031,307.671295 446.611420,307.945923 445.649109,307.264893 
	C443.509216,305.750488 441.707916,303.757660 439.458344,301.819183 
z"/>
<path fill="#EFBC0F" opacity="1.000000" stroke="none" 
	d="
M472.353638,267.058472 
	C468.519379,265.654327 464.934845,264.422272 461.578857,262.735413 
	C460.416168,262.150970 459.820770,260.437988 458.966248,259.240448 
	C460.391998,258.903503 462.009216,257.959717 463.209198,258.338348 
	C467.591064,259.720947 471.833801,261.544678 476.476868,263.339172 
	C478.565125,268.270264 476.055328,268.153625 472.353638,267.058472 
z"/>
<path fill="#BFC9C9" opacity="1.000000" stroke="none" 
	d="
M353.721741,419.835388 
	C360.754852,421.432739 367.533142,422.931152 374.648132,424.629456 
	C359.633026,424.896088 344.281250,424.962830 328.464813,425.095032 
	C306.976807,425.116760 285.953461,425.073059 264.465485,425.094635 
	C250.643875,425.116150 237.286850,425.072388 223.465256,425.093994 
	C215.310074,425.115814 207.619476,425.072296 199.464264,425.094482 
	C186.976364,425.116241 174.953079,425.072266 162.465164,425.093658 
	C147.976868,425.114410 133.953217,425.069824 119.465012,425.091003 
	C113.375916,425.098663 107.725082,425.358826 102.133820,424.897278 
	C95.944984,424.386475 89.810654,423.215485 83.480362,421.770203 
	C85.505882,420.806030 87.703369,420.053314 89.901382,420.051788 
	C175.015656,419.992310 260.129944,420.009216 345.244232,419.959229 
	C347.497131,419.957916 349.749634,419.328400 352.002319,418.991852 
	C352.490509,419.240051 352.978699,419.488251 353.721741,419.835388 
z"/>
<path fill="#0083EB" opacity="1.000000" stroke="none" 
	d="
M507.042664,503.094025 
	C506.281586,504.055176 505.520538,505.016327 504.427368,506.007263 
	C433.811981,506.024689 363.527985,506.186737 293.245758,505.907654 
	C267.824829,505.806732 242.395370,504.950317 216.993500,503.877502 
	C196.947556,503.030853 176.940018,501.290863 156.909988,500.034485 
	C153.708939,499.833710 150.185974,499.139954 149.333969,504.151245 
	C149.179947,505.057007 145.704391,505.914246 143.758942,505.921783 
	C114.613426,506.033997 85.467346,505.997742 56.321392,506.000854 
	C41.165569,506.002502 26.009748,506.012787 10.379335,506.028076 
	C8.275404,504.270020 6.646066,502.503021 5.435016,500.377014 
	C48.897778,500.011993 91.942284,500.025818 134.986649,499.955017 
	C137.819519,499.950378 140.651337,499.299744 144.063065,498.877991 
	C143.249741,497.333435 143.064514,496.673859 142.643265,496.247437 
	C141.834015,495.428284 140.890991,494.741211 140.003479,493.999329 
	C139.697922,493.209534 139.392380,492.419769 139.393677,491.160645 
	C140.670120,490.517059 141.662460,490.110992 142.605835,490.203552 
	C155.311417,491.450928 167.992493,492.985474 180.714554,494.019165 
	C203.033432,495.832611 225.363510,497.561127 247.713470,498.921478 
	C264.455109,499.940491 281.230988,500.480713 297.999542,500.951324 
	C316.454987,501.469177 334.918854,501.901520 353.380219,501.952698 
	C402.359039,502.088470 451.338501,501.984283 500.317596,502.045197 
	C502.559723,502.047974 504.800995,502.728943 507.042664,503.094025 
z"/>
<path fill="#0088EE" opacity="1.000000" stroke="none" 
	d="
M507.359344,502.947815 
	C504.800995,502.728943 502.559723,502.047974 500.317596,502.045197 
	C451.338501,501.984283 402.359039,502.088470 353.380219,501.952698 
	C334.918854,501.901520 316.454987,501.469177 297.999542,500.951324 
	C281.230988,500.480713 264.455109,499.940491 247.713470,498.921478 
	C225.363510,497.561127 203.033432,495.832611 180.714554,494.019165 
	C167.992493,492.985474 155.311417,491.450928 142.605835,490.203552 
	C141.662460,490.110992 140.670120,490.517059 139.346100,490.845947 
	C137.545059,490.037842 136.098495,489.075104 134.327179,488.055298 
	C132.444046,485.855957 130.885651,483.713715 129.160095,481.286987 
	C136.727493,481.521332 144.480545,481.850281 152.192566,482.600861 
	C165.878891,483.932892 179.524231,485.695526 193.216324,486.956085 
	C209.388214,488.444946 225.586563,489.659912 241.783508,490.857269 
	C249.062698,491.395386 256.364227,491.654419 263.659302,491.949707 
	C281.241669,492.661469 298.825562,493.338501 316.411011,493.969238 
	C318.041595,494.027710 319.687622,493.655731 321.662720,493.242126 
	C384.939514,496.332001 447.934235,494.555389 511.362427,495.003876 
	C510.438293,497.604156 509.057159,500.202881 507.359344,502.947815 
z"/>
<path fill="#0088EE" opacity="1.000000" stroke="none" 
	d="
M139.729431,494.269897 
	C140.890991,494.741211 141.834015,495.428284 142.643265,496.247437 
	C143.064514,496.673859 143.249741,497.333435 144.063065,498.877991 
	C140.651337,499.299744 137.819519,499.950378 134.986649,499.955017 
	C91.942284,500.025818 48.897778,500.011993 5.378698,500.026245 
	C4.009805,498.905273 3.115518,497.776031 2.200338,496.325348 
	C45.387417,496.002197 88.595444,496.025177 131.803238,495.936432 
	C134.354889,495.931183 136.904709,495.026550 139.729431,494.269897 
z"/>
<path fill="#F7F9F8" opacity="1.000000" stroke="none" 
	d="
M379.052673,288.933014 
	C374.664368,289.296387 370.276123,289.659729 365.461853,290.042572 
	C362.790222,289.708435 360.544861,289.047974 358.298920,289.045929 
	C296.506836,288.989655 234.714691,289.014984 172.922638,288.957581 
	C169.792145,288.954651 166.661499,288.341553 163.532227,288.000702 
	C160.330170,287.652008 159.546951,285.977081 160.934998,283.167969 
	C171.149384,262.495911 183.148163,243.495834 200.923111,227.883942 
	C217.247986,213.545609 235.844559,204.014069 255.602554,196.696350 
	C267.266754,192.376328 280.105988,190.844925 292.564880,189.144562 
	C311.254272,186.593903 329.586365,189.937439 347.728363,194.370331 
	C348.922333,194.662048 350.266449,194.339172 352.139465,194.153641 
	C356.104126,198.692017 359.470093,203.378937 362.913269,208.417023 
	C370.032440,220.914536 374.201721,234.129868 377.507629,248.074341 
	C378.224030,253.662033 378.903229,258.855713 379.516357,264.448944 
	C379.317749,272.876678 379.185211,280.904846 379.052673,288.933014 
z"/>
<path fill="#F2F6F5" opacity="1.000000" stroke="none" 
	d="
M432.915680,384.771057 
	C432.267700,387.103241 431.447815,389.004608 431.279144,390.962067 
	C430.828766,396.189423 427.633118,398.800781 422.943512,399.413452 
	C414.925385,400.460999 406.832306,401.147827 399.116058,396.657043 
	C400.170593,394.454651 401.463989,392.750671 401.749390,390.891907 
	C402.069000,388.810364 401.881012,386.450287 401.199463,384.455475 
	C399.545227,379.613770 397.802460,374.742310 395.431000,370.232178 
	C394.324402,368.127594 391.917786,365.937103 389.683777,365.337311 
	C382.635498,363.444977 375.515442,362.865509 368.069336,364.292297 
	C360.594818,365.724518 357.708313,370.806580 355.321869,376.805511 
	C354.165771,379.711578 352.990417,382.694855 352.499268,385.751709 
	C352.154724,387.896240 352.360077,390.543274 353.362823,392.403717 
	C355.427826,396.234924 354.285034,398.207794 350.430237,398.628235 
	C344.692017,399.254120 338.894226,399.760376 333.142303,399.596649 
	C331.201752,399.541412 328.682678,397.718170 327.526642,395.974548 
	C322.184998,387.917938 319.221954,379.436249 320.451019,369.207611 
	C321.614868,359.521393 325.967743,351.555450 330.410126,343.423981 
	C334.424530,336.075836 341.501160,332.006653 348.327301,327.929260 
	C373.883881,312.663910 402.067444,319.136963 420.777527,339.810120 
	C431.736786,351.919220 436.532959,367.427368 432.915680,384.771057 
z"/>
<path fill="#FFC952" opacity="1.000000" stroke="none" 
	d="
M362.836060,208.065857 
	C359.470093,203.378937 356.104126,198.692017 352.411041,193.894547 
	C349.812439,190.752365 347.540924,187.720764 345.255890,184.024765 
	C347.241028,182.906738 349.238617,182.063477 351.238525,182.057922 
	C381.139343,181.974670 411.040436,182.001968 440.941467,182.003235 
	C442.842194,187.448242 444.742889,192.893250 446.832916,198.669556 
	C447.303497,201.406418 447.584778,203.811996 447.370483,206.613403 
	C421.296906,207.007065 395.718811,206.976212 370.140991,207.049057 
	C367.705078,207.056000 365.270996,207.711472 362.836060,208.065857 
z"/>
<path fill="#EEF1F0" opacity="1.000000" stroke="none" 
	d="
M324.043335,165.975983 
	C324.517670,166.255447 324.992004,166.534897 326.008545,167.065186 
	C330.649536,170.888397 334.748260,174.460739 338.847015,178.033096 
	C332.589233,177.660538 326.289520,177.623764 320.081940,176.848877 
	C304.913788,174.955475 289.833710,175.706009 274.941040,178.596558 
	C238.310547,185.706223 206.713089,202.614899 180.530609,229.170212 
	C172.871033,236.938843 166.423218,245.902527 159.425568,254.323105 
	C158.498932,255.438126 157.605286,256.580536 156.696365,257.710266 
	C156.145691,257.751038 155.595016,257.791809 155.044342,257.832611 
	C154.029419,253.831009 153.014496,249.829422 152.338898,245.350800 
	C155.943069,241.188004 159.442459,237.682312 162.433243,233.786209 
	C177.592957,214.037628 196.581009,198.725143 218.504913,187.428192 
	C249.219757,171.601440 281.920349,163.949463 316.720642,166.896561 
	C319.118378,167.099609 321.600464,166.306061 324.043335,165.975983 
z"/>
<path fill="#FFCA63" opacity="1.000000" stroke="none" 
	d="
M339.151672,178.180710 
	C334.748260,174.460739 330.649536,170.888397 326.281311,167.113724 
	C327.886719,166.274323 329.759399,165.089310 331.636688,165.082016 
	C361.606354,164.965759 391.576599,165.024689 421.546539,164.959259 
	C424.343170,164.953156 427.138580,164.377213 430.514526,164.333466 
	C432.742645,166.690872 434.390808,168.780685 436.039001,170.870483 
	C437.702972,174.339600 439.366943,177.808731 440.986206,181.640533 
	C411.040436,182.001968 381.139343,181.974670 351.238525,182.057922 
	C349.238617,182.063477 347.241028,182.906738 345.093933,183.734360 
	C343.115753,182.181671 341.286072,180.254990 339.151672,178.180710 
z"/>
<path fill="#ECEFEF" opacity="1.000000" stroke="none" 
	d="
M323.858673,165.684723 
	C321.600464,166.306061 319.118378,167.099609 316.720642,166.896561 
	C281.920349,163.949463 249.219757,171.601440 218.504913,187.428192 
	C196.581009,198.725143 177.592957,214.037628 162.433243,233.786209 
	C159.442459,237.682312 155.943069,241.188004 152.337585,244.938141 
	C151.417831,244.185867 150.838699,243.369232 150.075104,241.937958 
	C149.594208,240.220825 149.297775,239.118347 149.001358,238.015869 
	C168.253326,212.960052 191.952408,193.232529 220.353607,179.399734 
	C242.961472,168.388550 266.829895,161.638245 292.031769,159.953171 
	C298.134552,159.545135 304.218506,158.855713 310.699677,158.125839 
	C315.283478,160.435165 319.478760,162.914322 323.858673,165.684723 
z"/>
<path fill="#EEF1F0" opacity="1.000000" stroke="none" 
	d="
M148.710358,237.840485 
	C149.297775,239.118347 149.594208,240.220825 149.944092,241.662903 
	C143.767242,239.344452 137.693649,237.056000 130.552673,236.757202 
	C115.564690,236.130051 99.960464,249.232086 99.155418,266.027374 
	C98.926041,270.812683 97.082298,273.071320 92.349747,273.928802 
	C91.504112,262.658569 94.075989,252.391235 101.614769,243.492996 
	C110.561890,232.932449 122.104889,229.703674 135.358154,230.273270 
	C141.112946,230.520615 145.358261,232.916504 148.710358,237.840485 
z"/>
<path fill="#0374EB" opacity="1.000000" stroke="none" 
	d="
M461.834778,138.714264 
	C457.111786,143.723694 452.354736,148.600189 447.252136,153.083435 
	C445.555176,154.574387 442.971649,155.056320 440.397339,156.001312 
	C427.361328,143.262726 414.721466,130.522385 402.332672,117.305130 
	C404.958344,111.201553 407.332916,105.574898 409.707458,99.948227 
	C420.053497,110.143150 430.399536,120.338081 440.791138,131.145187 
	C439.266205,133.453674 437.502930,135.018509 436.214539,136.907257 
	C435.652954,137.730499 436.065277,139.218048 436.035278,140.403915 
	C437.208130,140.307465 438.859650,140.674622 439.475555,140.038742 
	C443.251678,136.140106 446.793304,132.014389 450.413055,127.964310 
	C454.164001,131.452179 457.914917,134.940063 461.834778,138.714264 
z"/>
<path fill="#FCCB7A" opacity="1.000000" stroke="none" 
	d="
M330.888367,131.362244 
	C334.303802,130.387558 337.464447,129.668884 340.971558,128.828278 
	C350.931671,128.444672 360.545258,128.182999 370.963074,127.999290 
	C384.461639,130.242523 396.509308,134.091812 407.130402,141.656311 
	C405.276184,142.438156 403.425323,143.892059 401.567261,143.901291 
	C372.625366,144.045212 343.682495,144.022812 314.740112,143.943863 
	C313.240082,143.939774 311.742340,143.084488 310.100220,142.249939 
	C316.849091,138.455643 323.741302,135.036942 330.888367,131.362244 
z"/>
<path fill="#0374EB" opacity="1.000000" stroke="none" 
	d="
M407.413696,141.729645 
	C396.509308,134.091812 384.461639,130.242523 371.380676,127.961075 
	C366.420105,123.011513 361.846222,118.178131 357.515808,113.005432 
	C364.494324,111.858276 366.326385,109.922432 366.547455,103.337692 
	C366.630035,100.877785 366.669769,98.416435 366.729034,95.955742 
	C367.999084,96.658440 369.514038,97.115593 370.502075,98.101044 
	C383.267548,110.833328 395.958008,123.640823 408.847412,137.063828 
	C408.960114,139.160294 408.892731,140.622223 408.825348,142.084167 
	C408.449219,141.990448 408.073120,141.896713 407.413696,141.729645 
z"/>
<path fill="#EFBC0F" opacity="1.000000" stroke="none" 
	d="
M366.527954,95.680115 
	C366.669769,98.416435 366.630035,100.877785 366.547455,103.337692 
	C366.326385,109.922432 364.494324,111.858276 357.373108,112.688644 
	C352.462402,111.143074 350.526703,107.951393 350.891113,103.209908 
	C351.030029,101.402298 350.964020,99.573608 350.906036,97.757240 
	C350.760132,93.185425 352.614960,90.043327 357.277649,89.120224 
	C361.604614,88.263596 364.647278,90.466263 366.527954,95.680115 
z"/>
<path fill="#007CE8" opacity="1.000000" stroke="none" 
	d="
M409.007507,142.378357 
	C408.892731,140.622223 408.960114,139.160294 409.014954,137.351074 
	C418.788269,146.632446 428.584686,156.250427 438.353424,165.896423 
	C441.190155,168.697464 439.206024,169.734497 436.308777,170.670532 
	C434.390808,168.780685 432.742645,166.690872 430.918854,164.305084 
	C423.558716,156.896912 416.374207,149.784744 409.007507,142.378357 
z"/>
<path fill="#EFBC0F" opacity="1.000000" stroke="none" 
	d="
M409.502075,99.689354 
	C407.332916,105.574898 404.958344,111.201553 402.253662,116.975922 
	C401.235474,115.721909 399.688141,114.070068 400.010529,112.962440 
	C401.296021,108.545906 403.048553,104.249619 404.861694,100.008652 
	C405.847260,97.703415 407.479523,97.021370 409.502075,99.689354 
z"/>
<path fill="#EFBC0F" opacity="1.000000" stroke="none" 
	d="
M450.329987,127.627930 
	C446.793304,132.014389 443.251678,136.140106 439.475555,140.038742 
	C438.859650,140.674622 437.208130,140.307465 436.035278,140.403915 
	C436.065277,139.218048 435.652954,137.730499 436.214539,136.907257 
	C437.502930,135.018509 439.266205,133.453674 440.956055,131.444839 
	C442.603638,129.657425 444.091736,128.137833 445.670990,126.719749 
	C447.362915,125.200478 449.055664,124.444366 450.329987,127.627930 
z"/>
<path fill="#FFC73D" opacity="1.000000" stroke="none" 
	d="
M362.913269,208.417023 
	C365.270996,207.711472 367.705078,207.056000 370.140991,207.049057 
	C395.718811,206.976212 421.296906,207.007065 447.329865,207.009277 
	C449.279846,220.152344 447.969269,233.004837 443.110901,245.738831 
	C440.643829,245.610641 438.859467,245.044464 437.072968,245.037796 
	C419.181824,244.971069 401.289398,244.912567 383.400269,245.113617 
	C381.414276,245.135925 379.446564,246.785446 377.470398,247.680328 
	C374.201721,234.129868 370.032440,220.914536 362.913269,208.417023 
z"/>
<path fill="#FEC41B" opacity="1.000000" stroke="none" 
	d="
M379.509766,288.933655 
	C379.185211,280.904846 379.317749,272.876678 379.944397,264.437927 
	C382.929138,264.018250 385.420898,263.955475 387.910156,264.008789 
	C403.317291,264.338593 418.723846,264.694519 434.130615,265.041779 
	C427.128052,276.581146 417.800781,285.811646 406.057617,293.143616 
	C397.139008,291.854218 388.552917,290.394257 379.509766,288.933655 
z"/>
<path fill="#FEC529" opacity="1.000000" stroke="none" 
	d="
M434.417542,264.861450 
	C418.723846,264.694519 403.317291,264.338593 387.910156,264.008789 
	C385.420898,263.955475 382.929138,264.018250 380.010468,264.038391 
	C378.903229,258.855713 378.224030,253.662033 377.507629,248.074341 
	C379.446564,246.785446 381.414276,245.135925 383.400269,245.113617 
	C401.289398,244.912567 419.181824,244.971069 437.072968,245.037796 
	C438.859467,245.044464 440.643829,245.610641 442.858154,246.004089 
	C440.426208,252.287735 437.565338,258.484436 434.417542,264.861450 
z"/>
<path fill="#D4DCDC" opacity="1.000000" stroke="none" 
	d="
M342.686584,412.975159 
	C343.257446,413.511871 343.515656,413.995087 343.558044,414.973236 
	C341.206390,415.645477 339.070618,415.977142 336.934753,415.977783 
	C250.906128,416.003876 164.877487,415.988739 78.848907,416.051514 
	C76.088249,416.053528 73.328156,416.814484 70.567795,417.221649 
	C68.331848,416.134399 66.095909,415.047150 63.524384,413.883270 
	C63.188808,413.806641 63.104904,413.402313 63.050781,413.203094 
	C65.607231,412.669647 68.217628,412.044830 70.828400,412.043274 
	C160.247345,411.989899 249.666321,411.995514 339.557129,411.986633 
	C340.810638,412.294281 341.592285,412.607971 342.686584,412.975159 
z"/>
<path fill="#CAD4D3" opacity="1.000000" stroke="none" 
	d="
M70.831520,417.477051 
	C73.328156,416.814484 76.088249,416.053528 78.848907,416.051514 
	C164.877487,415.988739 250.906128,416.003876 336.934753,415.977783 
	C339.070618,415.977142 341.206390,415.645477 343.677490,415.220337 
	C346.519073,416.146881 349.025391,417.321228 351.767029,418.743713 
	C349.749634,419.328400 347.497131,419.957916 345.244232,419.959229 
	C260.129944,420.009216 175.015656,419.992310 89.901382,420.051788 
	C87.703369,420.053314 85.505882,420.806030 83.155289,421.566345 
	C79.033363,420.527008 75.064308,419.129700 70.831520,417.477051 
z"/>
</svg>